<svg width="231" height="32" viewBox="0 0 231 32" fill="none" xmlns="http://www.w3.org/2000/svg">
<path d="M6.23796 12.5199C6.23796 11.4661 6.23796 10.4115 6.23796 9.35695C6.23796 7.63438 7.63438 6.23796 9.35695 6.23796C11.0795 6.23796 12.4759 4.84155 12.4759 3.11898C12.4759 1.39642 13.8943 0 15.6169 0C17.3394 0 18.7578 1.39642 18.7578 3.11898C18.7578 4.84155 20.1542 6.23796 21.8768 6.23796C23.5994 6.23796 24.9958 7.63438 24.9958 9.35695V21.7325C24.9958 23.5347 23.5347 24.9958 21.7325 24.9958H15.6169C13.8822 24.9958 12.4759 26.4131 12.4759 28.1478C12.4759 29.8703 11.0795 31.2777 9.35695 31.2777C7.63438 31.2777 6.23796 29.8593 6.23796 28.1367C6.23796 26.4142 4.84155 24.9958 3.11898 24.9958C1.39642 24.9958 0 23.5994 0 21.8768V15.7832C0 13.9809 1.46104 12.52 3.26332 12.5202C4.25501 12.5203 5.24669 12.5203 6.23796 12.5199C6.23796 13.5111 6.23796 14.5028 6.23796 15.4945C6.23796 17.2968 7.699 18.7578 9.50129 18.7578H15.6395C17.3617 18.7578 18.7578 17.3617 18.7578 15.6395C18.7578 13.9168 17.3609 12.5204 15.6382 12.5202C12.5048 12.5199 9.37063 12.5179 6.23796 12.5199Z" fill="white"/>
<path d="M40.9264 22.9504C40.9264 22.9504 40.9264 22.8985 40.9264 22.7946V22.4328V22.071V21.9151H41.0822H41.444H41.8058H41.9617C41.9617 21.9151 41.9617 21.9671 41.9617 22.071V22.4328V22.7946V22.9504C41.9617 22.9504 41.9097 22.9504 41.8058 22.9504H41.444H41.0822H40.9264ZM40.9264 21.5387C40.9264 21.5387 40.9264 21.4867 40.9264 21.3828V21.021V20.6593V20.5034H41.0822H41.444H41.8058H41.9617C41.9617 20.5034 41.9617 20.5553 41.9617 20.6593V21.021V21.3828V21.5387C41.9617 21.5387 41.9097 21.5387 41.8058 21.5387H41.444H41.0822H40.9264ZM40.9264 20.1269C40.9264 20.1269 40.9264 20.0749 40.9264 19.971V19.6093V19.2475V19.0916H41.0822H41.444H41.8058H41.9617C41.9617 19.0916 41.9617 19.1436 41.9617 19.2475V19.6093V19.971V20.1269C41.9617 20.1269 41.9097 20.1269 41.8058 20.1269H41.444H41.0822H40.9264ZM40.9264 18.7151C40.9264 18.7151 40.9264 18.6632 40.9264 18.5593V18.1975V17.8357V17.6798H41.0822H41.444H41.8058H41.9617C41.9617 17.6798 41.9617 17.7318 41.9617 17.8357V18.1975V18.5593V18.7151C41.9617 18.7151 41.9097 18.7151 41.8058 18.7151H41.444H41.0822H40.9264ZM40.9264 17.3034C40.9264 17.3034 40.9264 17.2514 40.9264 17.1475V16.7857V16.424V16.2681H41.0822H41.444H41.8058H41.9617C41.9617 16.2681 41.9617 16.32 41.9617 16.424V16.7857V17.1475V17.3034C41.9617 17.3034 41.9097 17.3034 41.8058 17.3034H41.444H41.0822H40.9264ZM42.3381 17.3034C42.3381 17.3034 42.3381 17.2514 42.3381 17.1475V16.7857V16.424V16.2681H42.494H42.8558H43.2175H43.3734C43.3734 16.2681 43.3734 16.32 43.3734 16.424V16.7857V17.1475V17.3034C43.3734 17.3034 43.3215 17.3034 43.2175 17.3034H42.8558H42.494H42.3381ZM43.7499 17.3034C43.7499 17.3034 43.7499 17.2514 43.7499 17.1475V16.7857V16.424V16.2681H43.9058H44.2675H44.6293H44.7852C44.7852 16.2681 44.7852 16.32 44.7852 16.424V16.7857V17.1475V17.3034C44.7852 17.3034 44.7332 17.3034 44.6293 17.3034H44.2675H43.9058H43.7499ZM45.1617 17.3034C45.1617 17.3034 45.1617 17.2514 45.1617 17.1475V16.7857V16.424V16.2681H45.3175H45.6793H46.0411H46.1969C46.1969 16.2681 46.1969 16.32 46.1969 16.424V16.7857V17.1475V17.3034C46.1969 17.3034 46.145 17.3034 46.0411 17.3034H45.6793H45.3175H45.1617ZM40.9264 15.8916C40.9264 15.8916 40.9264 15.8397 40.9264 15.7357V15.374V15.0122V14.8563H41.0822H41.444H41.8058H41.9617C41.9617 14.8563 41.9617 14.9083 41.9617 15.0122V15.374V15.7357V15.8916C41.9617 15.8916 41.9097 15.8916 41.8058 15.8916H41.444H41.0822H40.9264ZM46.5734 15.8916C46.5734 15.8916 46.5734 15.8397 46.5734 15.7357V15.374V15.0122V14.8563H46.7293H47.0911H47.4528H47.6087C47.6087 14.8563 47.6087 14.9083 47.6087 15.0122V15.374V15.7357V15.8916C47.6087 15.8916 47.5567 15.8916 47.4528 15.8916H47.0911H46.7293H46.5734ZM40.9264 14.4798C40.9264 14.4798 40.9264 14.4279 40.9264 14.324V13.9622V13.6004V13.4446H41.0822H41.444H41.8058H41.9617C41.9617 13.4446 41.9617 13.4965 41.9617 13.6004V13.9622V14.324V14.4798C41.9617 14.4798 41.9097 14.4798 41.8058 14.4798H41.444H41.0822H40.9264ZM46.5734 14.4798C46.5734 14.4798 46.5734 14.4279 46.5734 14.324V13.9622V13.6004V13.4446H46.7293H47.0911H47.4528H47.6087C47.6087 13.4446 47.6087 13.4965 47.6087 13.6004V13.9622V14.324V14.4798C47.6087 14.4798 47.5567 14.4798 47.4528 14.4798H47.0911H46.7293H46.5734ZM40.9264 13.0681C40.9264 13.0681 40.9264 13.0161 40.9264 12.9122V12.5504V12.1887V12.0328H41.0822H41.444H41.8058H41.9617C41.9617 12.0328 41.9617 12.0847 41.9617 12.1887V12.5504V12.9122V13.0681C41.9617 13.0681 41.9097 13.0681 41.8058 13.0681H41.444H41.0822H40.9264ZM46.5734 13.0681C46.5734 13.0681 46.5734 13.0161 46.5734 12.9122V12.5504V12.1887V12.0328H46.7293H47.0911H47.4528H47.6087C47.6087 12.0328 47.6087 12.0847 47.6087 12.1887V12.5504V12.9122V13.0681C47.6087 13.0681 47.5567 13.0681 47.4528 13.0681H47.0911H46.7293H46.5734ZM40.9264 11.6563C40.9264 11.6563 40.9264 11.6044 40.9264 11.5004V11.1387V10.7769V10.621H41.0822H41.444H41.8058H41.9617C41.9617 10.621 41.9617 10.673 41.9617 10.7769V11.1387V11.5004V11.6563C41.9617 11.6563 41.9097 11.6563 41.8058 11.6563H41.444H41.0822H40.9264ZM46.5734 11.6563C46.5734 11.6563 46.5734 11.6044 46.5734 11.5004V11.1387V10.7769V10.621H46.7293H47.0911H47.4528H47.6087C47.6087 10.621 47.6087 10.673 47.6087 10.7769V11.1387V11.5004V11.6563C47.6087 11.6563 47.5567 11.6563 47.4528 11.6563H47.0911H46.7293H46.5734ZM40.9264 10.2446C40.9264 10.2446 40.9264 10.1926 40.9264 10.0887V9.72691V9.36514V9.20926H41.0822H41.444H41.8058H41.9617C41.9617 9.20926 41.9617 9.26122 41.9617 9.36514V9.72691V10.0887V10.2446C41.9617 10.2446 41.9097 10.2446 41.8058 10.2446H41.444H41.0822H40.9264ZM46.5734 10.2446C46.5734 10.2446 46.5734 10.1926 46.5734 10.0887V9.72691V9.36514V9.20926H46.7293H47.0911H47.4528H47.6087C47.6087 9.20926 47.6087 9.26122 47.6087 9.36514V9.72691V10.0887V10.2446C47.6087 10.2446 47.5567 10.2446 47.4528 10.2446H47.0911H46.7293H46.5734ZM40.9264 8.83279C40.9264 8.83279 40.9264 8.78083 40.9264 8.67691V8.31514V7.95338V7.79749H41.0822H41.444H41.8058H41.9617C41.9617 7.79749 41.9617 7.84946 41.9617 7.95338V8.31514V8.67691V8.83279C41.9617 8.83279 41.9097 8.83279 41.8058 8.83279H41.444H41.0822H40.9264ZM42.3381 8.83279C42.3381 8.83279 42.3381 8.78083 42.3381 8.67691V8.31514V7.95338V7.79749H42.494H42.8558H43.2175H43.3734C43.3734 7.79749 43.3734 7.84946 43.3734 7.95338V8.31514V8.67691V8.83279C43.3734 8.83279 43.3215 8.83279 43.2175 8.83279H42.8558H42.494H42.3381ZM43.7499 8.83279C43.7499 8.83279 43.7499 8.78083 43.7499 8.67691V8.31514V7.95338V7.79749H43.9058H44.2675H44.6293H44.7852C44.7852 7.79749 44.7852 7.84946 44.7852 7.95338V8.31514V8.67691V8.83279C44.7852 8.83279 44.7332 8.83279 44.6293 8.83279H44.2675H43.9058H43.7499ZM45.1617 8.83279C45.1617 8.83279 45.1617 8.78083 45.1617 8.67691V8.31514V7.95338V7.79749H45.3175H45.6793H46.0411H46.1969C46.1969 7.79749 46.1969 7.84946 46.1969 7.95338V8.31514V8.67691V8.83279C46.1969 8.83279 46.145 8.83279 46.0411 8.83279H45.6793H45.3175H45.1617ZM49.6339 22.9504C49.6339 22.9504 49.6339 22.8985 49.6339 22.7946V22.4328V22.071V21.9151H49.7897H50.1515H50.5133H50.6692C50.6692 21.9151 50.6692 21.9671 50.6692 22.071V22.4328V22.7946V22.9504C50.6692 22.9504 50.6172 22.9504 50.5133 22.9504H50.1515H49.7897H49.6339ZM49.6339 21.5387C49.6339 21.5387 49.6339 21.4867 49.6339 21.3828V21.021V20.6593V20.5034H49.7897H50.1515H50.5133H50.6692C50.6692 20.5034 50.6692 20.5553 50.6692 20.6593V21.021V21.3828V21.5387C50.6692 21.5387 50.6172 21.5387 50.5133 21.5387H50.1515H49.7897H49.6339ZM49.6339 20.1269C49.6339 20.1269 49.6339 20.0749 49.6339 19.971V19.6093V19.2475V19.0916H49.7897H50.1515H50.5133H50.6692C50.6692 19.0916 50.6692 19.1436 50.6692 19.2475V19.6093V19.971V20.1269C50.6692 20.1269 50.6172 20.1269 50.5133 20.1269H50.1515H49.7897H49.6339ZM49.6339 18.7151C49.6339 18.7151 49.6339 18.6632 49.6339 18.5593V18.1975V17.8357V17.6798H49.7897H50.1515H50.5133H50.6692C50.6692 17.6798 50.6692 17.7318 50.6692 17.8357V18.1975V18.5593V18.7151C50.6692 18.7151 50.6172 18.7151 50.5133 18.7151H50.1515H49.7897H49.6339ZM49.6339 17.3034C49.6339 17.3034 49.6339 17.2514 49.6339 17.1475V16.7857V16.424V16.2681H49.7897H50.1515H50.5133H50.6692C50.6692 16.2681 50.6692 16.32 50.6692 16.424V16.7857V17.1475V17.3034C50.6692 17.3034 50.6172 17.3034 50.5133 17.3034H50.1515H49.7897H49.6339ZM49.6339 15.8916C49.6339 15.8916 49.6339 15.8397 49.6339 15.7357V15.374V15.0122V14.8563H49.7897H50.1515H50.5133H50.6692C50.6692 14.8563 50.6692 14.9083 50.6692 15.0122V15.374V15.7357V15.8916C50.6692 15.8916 50.6172 15.8916 50.5133 15.8916H50.1515H49.7897H49.6339ZM53.8692 15.8916C53.8692 15.8916 53.8692 15.8397 53.8692 15.7357V15.374V15.0122V14.8563H54.025H54.3868H54.7486H54.9044C54.9044 14.8563 54.9044 14.9083 54.9044 15.0122V15.374V15.7357V15.8916C54.9044 15.8916 54.8525 15.8916 54.7486 15.8916H54.3868H54.025H53.8692ZM49.6339 14.4798C49.6339 14.4798 49.6339 14.4279 49.6339 14.324V13.9622V13.6004V13.4446H49.7897H50.1515H50.5133H50.6692C50.6692 13.4446 50.6692 13.4965 50.6692 13.6004V13.9622V14.324V14.4798C50.6692 14.4798 50.6172 14.4798 50.5133 14.4798H50.1515H49.7897H49.6339ZM53.8692 14.4798C53.8692 14.4798 53.8692 14.4279 53.8692 14.324V13.9622V13.6004V13.4446H54.025H54.3868H54.7486H54.9044C54.9044 13.4446 54.9044 13.4965 54.9044 13.6004V13.9622V14.324V14.4798C54.9044 14.4798 54.8525 14.4798 54.7486 14.4798H54.3868H54.025H53.8692ZM51.0456 13.0681C51.0456 13.0681 51.0456 13.0161 51.0456 12.9122V12.5504V12.1887V12.0328H51.2015H51.5633H51.925H52.0809C52.0809 12.0328 52.0809 12.0847 52.0809 12.1887V12.5504V12.9122V13.0681C52.0809 13.0681 52.029 13.0681 51.925 13.0681H51.5633H51.2015H51.0456ZM52.4574 13.0681C52.4574 13.0681 52.4574 13.0161 52.4574 12.9122V12.5504V12.1887V12.0328H52.6133H52.975H53.3368H53.4927C53.4927 12.0328 53.4927 12.0847 53.4927 12.1887V12.5504V12.9122V13.0681C53.4927 13.0681 53.4407 13.0681 53.3368 13.0681H52.975H52.6133H52.4574ZM58.3234 22.9504C58.3234 22.9504 58.3234 22.8985 58.3234 22.7946V22.4328V22.071V21.9151H58.4793H58.8411H59.2028H59.3587C59.3587 21.9151 59.3587 21.9671 59.3587 22.071V22.4328V22.7946V22.9504C59.3587 22.9504 59.3068 22.9504 59.2028 22.9504H58.8411H58.4793H58.3234ZM59.7352 22.9504C59.7352 22.9504 59.7352 22.8985 59.7352 22.7946V22.4328V22.071V21.9151H59.8911H60.2528H60.6146H60.7705C60.7705 21.9151 60.7705 21.9671 60.7705 22.071V22.4328V22.7946V22.9504C60.7705 22.9504 60.7185 22.9504 60.6146 22.9504H60.2528H59.8911H59.7352ZM61.147 22.9504C61.147 22.9504 61.147 22.8985 61.147 22.7946V22.4328V22.071V21.9151H61.3028H61.6646H62.0264H62.1823C62.1823 21.9151 62.1823 21.9671 62.1823 22.071V22.4328V22.7946V22.9504C62.1823 22.9504 62.1303 22.9504 62.0264 22.9504H61.6646H61.3028H61.147ZM56.9117 21.5387C56.9117 21.5387 56.9117 21.4867 56.9117 21.3828V21.021V20.6593V20.5034H57.0676H57.4293H57.7911H57.947C57.947 20.5034 57.947 20.5553 57.947 20.6593V21.021V21.3828V21.5387C57.947 21.5387 57.895 21.5387 57.7911 21.5387H57.4293H57.0676H56.9117ZM62.5587 21.5387C62.5587 21.5387 62.5587 21.4867 62.5587 21.3828V21.021V20.6593V20.5034H62.7146H63.0764H63.4381H63.594C63.594 20.5034 63.594 20.5553 63.594 20.6593V21.021V21.3828V21.5387C63.594 21.5387 63.5421 21.5387 63.4381 21.5387H63.0764H62.7146H62.5587ZM56.9117 20.1269C56.9117 20.1269 56.9117 20.0749 56.9117 19.971V19.6093V19.2475V19.0916H57.0676H57.4293H57.7911H57.947C57.947 19.0916 57.947 19.1436 57.947 19.2475V19.6093V19.971V20.1269C57.947 20.1269 57.895 20.1269 57.7911 20.1269H57.4293H57.0676H56.9117ZM62.5587 20.1269C62.5587 20.1269 62.5587 20.0749 62.5587 19.971V19.6093V19.2475V19.0916H62.7146H63.0764H63.4381H63.594C63.594 19.0916 63.594 19.1436 63.594 19.2475V19.6093V19.971V20.1269C63.594 20.1269 63.5421 20.1269 63.4381 20.1269H63.0764H62.7146H62.5587ZM56.9117 18.7151C56.9117 18.7151 56.9117 18.6632 56.9117 18.5593V18.1975V17.8357V17.6798H57.0676H57.4293H57.7911H57.947C57.947 17.6798 57.947 17.7318 57.947 17.8357V18.1975V18.5593V18.7151C57.947 18.7151 57.895 18.7151 57.7911 18.7151H57.4293H57.0676H56.9117ZM62.5587 18.7151C62.5587 18.7151 62.5587 18.6632 62.5587 18.5593V18.1975V17.8357V17.6798H62.7146H63.0764H63.4381H63.594C63.594 17.6798 63.594 17.7318 63.594 17.8357V18.1975V18.5593V18.7151C63.594 18.7151 63.5421 18.7151 63.4381 18.7151H63.0764H62.7146H62.5587ZM56.9117 17.3034C56.9117 17.3034 56.9117 17.2514 56.9117 17.1475V16.7857V16.424V16.2681H57.0676H57.4293H57.7911H57.947C57.947 16.2681 57.947 16.32 57.947 16.424V16.7857V17.1475V17.3034C57.947 17.3034 57.895 17.3034 57.7911 17.3034H57.4293H57.0676H56.9117ZM62.5587 17.3034C62.5587 17.3034 62.5587 17.2514 62.5587 17.1475V16.7857V16.424V16.2681H62.7146H63.0764H63.4381H63.594C63.594 16.2681 63.594 16.32 63.594 16.424V16.7857V17.1475V17.3034C63.594 17.3034 63.5421 17.3034 63.4381 17.3034H63.0764H62.7146H62.5587ZM56.9117 15.8916C56.9117 15.8916 56.9117 15.8397 56.9117 15.7357V15.374V15.0122V14.8563H57.0676H57.4293H57.7911H57.947C57.947 14.8563 57.947 14.9083 57.947 15.0122V15.374V15.7357V15.8916C57.947 15.8916 57.895 15.8916 57.7911 15.8916H57.4293H57.0676H56.9117ZM62.5587 15.8916C62.5587 15.8916 62.5587 15.8397 62.5587 15.7357V15.374V15.0122V14.8563H62.7146H63.0764H63.4381H63.594C63.594 14.8563 63.594 14.9083 63.594 15.0122V15.374V15.7357V15.8916C63.594 15.8916 63.5421 15.8916 63.4381 15.8916H63.0764H62.7146H62.5587ZM56.9117 14.4798C56.9117 14.4798 56.9117 14.4279 56.9117 14.324V13.9622V13.6004V13.4446H57.0676H57.4293H57.7911H57.947C57.947 13.4446 57.947 13.4965 57.947 13.6004V13.9622V14.324V14.4798C57.947 14.4798 57.895 14.4798 57.7911 14.4798H57.4293H57.0676H56.9117ZM62.5587 14.4798C62.5587 14.4798 62.5587 14.4279 62.5587 14.324V13.9622V13.6004V13.4446H62.7146H63.0764H63.4381H63.594C63.594 13.4446 63.594 13.4965 63.594 13.6004V13.9622V14.324V14.4798C63.594 14.4798 63.5421 14.4798 63.4381 14.4798H63.0764H62.7146H62.5587ZM58.3234 13.0681C58.3234 13.0681 58.3234 13.0161 58.3234 12.9122V12.5504V12.1887V12.0328H58.4793H58.8411H59.2028H59.3587C59.3587 12.0328 59.3587 12.0847 59.3587 12.1887V12.5504V12.9122V13.0681C59.3587 13.0681 59.3068 13.0681 59.2028 13.0681H58.8411H58.4793H58.3234ZM59.7352 13.0681C59.7352 13.0681 59.7352 13.0161 59.7352 12.9122V12.5504V12.1887V12.0328H59.8911H60.2528H60.6146H60.7705C60.7705 12.0328 60.7705 12.0847 60.7705 12.1887V12.5504V12.9122V13.0681C60.7705 13.0681 60.7185 13.0681 60.6146 13.0681H60.2528H59.8911H59.7352ZM61.147 13.0681C61.147 13.0681 61.147 13.0161 61.147 12.9122V12.5504V12.1887V12.0328H61.3028H61.6646H62.0264H62.1823C62.1823 12.0328 62.1823 12.0847 62.1823 12.1887V12.5504V12.9122V13.0681C62.1823 13.0681 62.1303 13.0681 62.0264 13.0681H61.6646H61.3028H61.147ZM66.3223 22.9504C66.3223 22.9504 66.3223 22.8985 66.3223 22.7946V22.4328V22.071V21.9151H66.4782H66.8399H67.2017H67.3576C67.3576 21.9151 67.3576 21.9671 67.3576 22.071V22.4328V22.7946V22.9504C67.3576 22.9504 67.3056 22.9504 67.2017 22.9504H66.8399H66.4782H66.3223ZM71.9694 22.9504C71.9694 22.9504 71.9694 22.8985 71.9694 22.7946V22.4328V22.071V21.9151H72.1252H72.487H72.8488H73.0046C73.0046 21.9151 73.0046 21.9671 73.0046 22.071V22.4328V22.7946V22.9504C73.0046 22.9504 72.9527 22.9504 72.8488 22.9504H72.487H72.1252H71.9694ZM77.6164 22.9504C77.6164 22.9504 77.6164 22.8985 77.6164 22.7946V22.4328V22.071V21.9151H77.7723H78.1341H78.4958H78.6517C78.6517 21.9151 78.6517 21.9671 78.6517 22.071V22.4328V22.7946V22.9504C78.6517 22.9504 78.5997 22.9504 78.4958 22.9504H78.1341H77.7723H77.6164ZM66.3223 21.5387C66.3223 21.5387 66.3223 21.4867 66.3223 21.3828V21.021V20.6593V20.5034H66.4782H66.8399H67.2017H67.3576C67.3576 20.5034 67.3576 20.5553 67.3576 20.6593V21.021V21.3828V21.5387C67.3576 21.5387 67.3056 21.5387 67.2017 21.5387H66.8399H66.4782H66.3223ZM71.9694 21.5387C71.9694 21.5387 71.9694 21.4867 71.9694 21.3828V21.021V20.6593V20.5034H72.1252H72.487H72.8488H73.0046C73.0046 20.5034 73.0046 20.5553 73.0046 20.6593V21.021V21.3828V21.5387C73.0046 21.5387 72.9527 21.5387 72.8488 21.5387H72.487H72.1252H71.9694ZM77.6164 21.5387C77.6164 21.5387 77.6164 21.4867 77.6164 21.3828V21.021V20.6593V20.5034H77.7723H78.1341H78.4958H78.6517C78.6517 20.5034 78.6517 20.5553 78.6517 20.6593V21.021V21.3828V21.5387C78.6517 21.5387 78.5997 21.5387 78.4958 21.5387H78.1341H77.7723H77.6164ZM66.3223 20.1269C66.3223 20.1269 66.3223 20.0749 66.3223 19.971V19.6093V19.2475V19.0916H66.4782H66.8399H67.2017H67.3576C67.3576 19.0916 67.3576 19.1436 67.3576 19.2475V19.6093V19.971V20.1269C67.3576 20.1269 67.3056 20.1269 67.2017 20.1269H66.8399H66.4782H66.3223ZM71.9694 20.1269C71.9694 20.1269 71.9694 20.0749 71.9694 19.971V19.6093V19.2475V19.0916H72.1252H72.487H72.8488H73.0046C73.0046 19.0916 73.0046 19.1436 73.0046 19.2475V19.6093V19.971V20.1269C73.0046 20.1269 72.9527 20.1269 72.8488 20.1269H72.487H72.1252H71.9694ZM77.6164 20.1269C77.6164 20.1269 77.6164 20.0749 77.6164 19.971V19.6093V19.2475V19.0916H77.7723H78.1341H78.4958H78.6517C78.6517 19.0916 78.6517 19.1436 78.6517 19.2475V19.6093V19.971V20.1269C78.6517 20.1269 78.5997 20.1269 78.4958 20.1269H78.1341H77.7723H77.6164ZM66.3223 18.7151C66.3223 18.7151 66.3223 18.6632 66.3223 18.5593V18.1975V17.8357V17.6798H66.4782H66.8399H67.2017H67.3576C67.3576 17.6798 67.3576 17.7318 67.3576 17.8357V18.1975V18.5593V18.7151C67.3576 18.7151 67.3056 18.7151 67.2017 18.7151H66.8399H66.4782H66.3223ZM71.9694 18.7151C71.9694 18.7151 71.9694 18.6632 71.9694 18.5593V18.1975V17.8357V17.6798H72.1252H72.487H72.8488H73.0046C73.0046 17.6798 73.0046 17.7318 73.0046 17.8357V18.1975V18.5593V18.7151C73.0046 18.7151 72.9527 18.7151 72.8488 18.7151H72.487H72.1252H71.9694ZM77.6164 18.7151C77.6164 18.7151 77.6164 18.6632 77.6164 18.5593V18.1975V17.8357V17.6798H77.7723H78.1341H78.4958H78.6517C78.6517 17.6798 78.6517 17.7318 78.6517 17.8357V18.1975V18.5593V18.7151C78.6517 18.7151 78.5997 18.7151 78.4958 18.7151H78.1341H77.7723H77.6164ZM66.3223 17.3034C66.3223 17.3034 66.3223 17.2514 66.3223 17.1475V16.7857V16.424V16.2681H66.4782H66.8399H67.2017H67.3576C67.3576 16.2681 67.3576 16.32 67.3576 16.424V16.7857V17.1475V17.3034C67.3576 17.3034 67.3056 17.3034 67.2017 17.3034H66.8399H66.4782H66.3223ZM71.9694 17.3034C71.9694 17.3034 71.9694 17.2514 71.9694 17.1475V16.7857V16.424V16.2681H72.1252H72.487H72.8488H73.0046C73.0046 16.2681 73.0046 16.32 73.0046 16.424V16.7857V17.1475V17.3034C73.0046 17.3034 72.9527 17.3034 72.8488 17.3034H72.487H72.1252H71.9694ZM77.6164 17.3034C77.6164 17.3034 77.6164 17.2514 77.6164 17.1475V16.7857V16.424V16.2681H77.7723H78.1341H78.4958H78.6517C78.6517 16.2681 78.6517 16.32 78.6517 16.424V16.7857V17.1475V17.3034C78.6517 17.3034 78.5997 17.3034 78.4958 17.3034H78.1341H77.7723H77.6164ZM66.3223 15.8916C66.3223 15.8916 66.3223 15.8397 66.3223 15.7357V15.374V15.0122V14.8563H66.4782H66.8399H67.2017H67.3576C67.3576 14.8563 67.3576 14.9083 67.3576 15.0122V15.374V15.7357V15.8916C67.3576 15.8916 67.3056 15.8916 67.2017 15.8916H66.8399H66.4782H66.3223ZM71.9694 15.8916C71.9694 15.8916 71.9694 15.8397 71.9694 15.7357V15.374V15.0122V14.8563H72.1252H72.487H72.8488H73.0046C73.0046 14.8563 73.0046 14.9083 73.0046 15.0122V15.374V15.7357V15.8916C73.0046 15.8916 72.9527 15.8916 72.8488 15.8916H72.487H72.1252H71.9694ZM77.6164 15.8916C77.6164 15.8916 77.6164 15.8397 77.6164 15.7357V15.374V15.0122V14.8563H77.7723H78.1341H78.4958H78.6517C78.6517 14.8563 78.6517 14.9083 78.6517 15.0122V15.374V15.7357V15.8916C78.6517 15.8916 78.5997 15.8916 78.4958 15.8916H78.1341H77.7723H77.6164ZM66.3223 14.4798C66.3223 14.4798 66.3223 14.4279 66.3223 14.324V13.9622V13.6004V13.4446H66.4782H66.8399H67.2017H67.3576C67.3576 13.4446 67.3576 13.4965 67.3576 13.6004V13.9622V14.324V14.4798C67.3576 14.4798 67.3056 14.4798 67.2017 14.4798H66.8399H66.4782H66.3223ZM67.7341 14.4798C67.7341 14.4798 67.7341 14.4279 67.7341 14.324V13.9622V13.6004V13.4446H67.8899H68.2517H68.6135H68.7694C68.7694 13.4446 68.7694 13.4965 68.7694 13.6004V13.9622V14.324V14.4798C68.7694 14.4798 68.7174 14.4798 68.6135 14.4798H68.2517H67.8899H67.7341ZM71.9694 14.4798C71.9694 14.4798 71.9694 14.4279 71.9694 14.324V13.9622V13.6004V13.4446H72.1252H72.487H72.8488H73.0046C73.0046 13.4446 73.0046 13.4965 73.0046 13.6004V13.9622V14.324V14.4798C73.0046 14.4798 72.9527 14.4798 72.8488 14.4798H72.487H72.1252H71.9694ZM73.3811 14.4798C73.3811 14.4798 73.3811 14.4279 73.3811 14.324V13.9622V13.6004V13.4446H73.537H73.8988H74.2605H74.4164C74.4164 13.4446 74.4164 13.4965 74.4164 13.6004V13.9622V14.324V14.4798C74.4164 14.4798 74.3644 14.4798 74.2605 14.4798H73.8988H73.537H73.3811ZM77.6164 14.4798C77.6164 14.4798 77.6164 14.4279 77.6164 14.324V13.9622V13.6004V13.4446H77.7723H78.1341H78.4958H78.6517C78.6517 13.4446 78.6517 13.4965 78.6517 13.6004V13.9622V14.324V14.4798C78.6517 14.4798 78.5997 14.4798 78.4958 14.4798H78.1341H77.7723H77.6164ZM66.3223 13.0681C66.3223 13.0681 66.3223 13.0161 66.3223 12.9122V12.5504V12.1887V12.0328H66.4782H66.8399H67.2017H67.3576C67.3576 12.0328 67.3576 12.0847 67.3576 12.1887V12.5504V12.9122V13.0681C67.3576 13.0681 67.3056 13.0681 67.2017 13.0681H66.8399H66.4782H66.3223ZM69.1458 13.0681C69.1458 13.0681 69.1458 13.0161 69.1458 12.9122V12.5504V12.1887V12.0328H69.3017H69.6635H70.0252H70.1811C70.1811 12.0328 70.1811 12.0847 70.1811 12.1887V12.5504V12.9122V13.0681C70.1811 13.0681 70.1292 13.0681 70.0252 13.0681H69.6635H69.3017H69.1458ZM70.5576 13.0681C70.5576 13.0681 70.5576 13.0161 70.5576 12.9122V12.5504V12.1887V12.0328H70.7135H71.0752H71.437H71.5929C71.5929 12.0328 71.5929 12.0847 71.5929 12.1887V12.5504V12.9122V13.0681C71.5929 13.0681 71.5409 13.0681 71.437 13.0681H71.0752H70.7135H70.5576ZM74.7929 13.0681C74.7929 13.0681 74.7929 13.0161 74.7929 12.9122V12.5504V12.1887V12.0328H74.9488H75.3105H75.6723H75.8282C75.8282 12.0328 75.8282 12.0847 75.8282 12.1887V12.5504V12.9122V13.0681C75.8282 13.0681 75.7762 13.0681 75.6723 13.0681H75.3105H74.9488H74.7929ZM76.2046 13.0681C76.2046 13.0681 76.2046 13.0161 76.2046 12.9122V12.5504V12.1887V12.0328H76.3605H76.7223H77.0841H77.2399C77.2399 12.0328 77.2399 12.0847 77.2399 12.1887V12.5504V12.9122V13.0681C77.2399 13.0681 77.188 13.0681 77.0841 13.0681H76.7223H76.3605H76.2046ZM82.7931 22.9504C82.7931 22.9504 82.7931 22.8985 82.7931 22.7946V22.4328V22.071V21.9151H82.949H83.3108H83.6725H83.8284C83.8284 21.9151 83.8284 21.9671 83.8284 22.071V22.4328V22.7946V22.9504C83.8284 22.9504 83.7765 22.9504 83.6725 22.9504H83.3108H82.949H82.7931ZM84.2049 22.9504C84.2049 22.9504 84.2049 22.8985 84.2049 22.7946V22.4328V22.071V21.9151H84.3608H84.7225H85.0843H85.2402C85.2402 21.9151 85.2402 21.9671 85.2402 22.071V22.4328V22.7946V22.9504C85.2402 22.9504 85.1882 22.9504 85.0843 22.9504H84.7225H84.3608H84.2049ZM85.6167 22.9504C85.6167 22.9504 85.6167 22.8985 85.6167 22.7946V22.4328V22.071V21.9151H85.7725H86.1343H86.4961H86.6519C86.6519 21.9151 86.6519 21.9671 86.6519 22.071V22.4328V22.7946V22.9504C86.6519 22.9504 86.6 22.9504 86.4961 22.9504H86.1343H85.7725H85.6167ZM81.3814 21.5387C81.3814 21.5387 81.3814 21.4867 81.3814 21.3828V21.021V20.6593V20.5034H81.5372H81.899H82.2608H82.4167C82.4167 20.5034 82.4167 20.5553 82.4167 20.6593V21.021V21.3828V21.5387C82.4167 21.5387 82.3647 21.5387 82.2608 21.5387H81.899H81.5372H81.3814ZM87.0284 21.5387C87.0284 21.5387 87.0284 21.4867 87.0284 21.3828V21.021V20.6593V20.5034H87.1843H87.5461H87.9078H88.0637C88.0637 20.5034 88.0637 20.5553 88.0637 20.6593V21.021V21.3828V21.5387C88.0637 21.5387 88.0118 21.5387 87.9078 21.5387H87.5461H87.1843H87.0284ZM81.3814 20.1269C81.3814 20.1269 81.3814 20.0749 81.3814 19.971V19.6093V19.2475V19.0916H81.5372H81.899H82.2608H82.4167C82.4167 19.0916 82.4167 19.1436 82.4167 19.2475V19.6093V19.971V20.1269C82.4167 20.1269 82.3647 20.1269 82.2608 20.1269H81.899H81.5372H81.3814ZM81.3814 18.7151C81.3814 18.7151 81.3814 18.6632 81.3814 18.5593V18.1975V17.8357V17.6798H81.5372H81.899H82.2608H82.4167C82.4167 17.6798 82.4167 17.7318 82.4167 17.8357V18.1975V18.5593V18.7151C82.4167 18.7151 82.3647 18.7151 82.2608 18.7151H81.899H81.5372H81.3814ZM81.3814 17.3034C81.3814 17.3034 81.3814 17.2514 81.3814 17.1475V16.7857V16.424V16.2681H81.5372H81.899H82.2608H82.4167C82.4167 16.2681 82.4167 16.32 82.4167 16.424V16.7857V17.1475V17.3034C82.4167 17.3034 82.3647 17.3034 82.2608 17.3034H81.899H81.5372H81.3814ZM82.7931 17.3034C82.7931 17.3034 82.7931 17.2514 82.7931 17.1475V16.7857V16.424V16.2681H82.949H83.3108H83.6725H83.8284C83.8284 16.2681 83.8284 16.32 83.8284 16.424V16.7857V17.1475V17.3034C83.8284 17.3034 83.7765 17.3034 83.6725 17.3034H83.3108H82.949H82.7931ZM84.2049 17.3034C84.2049 17.3034 84.2049 17.2514 84.2049 17.1475V16.7857V16.424V16.2681H84.3608H84.7225H85.0843H85.2402C85.2402 16.2681 85.2402 16.32 85.2402 16.424V16.7857V17.1475V17.3034C85.2402 17.3034 85.1882 17.3034 85.0843 17.3034H84.7225H84.3608H84.2049ZM85.6167 17.3034C85.6167 17.3034 85.6167 17.2514 85.6167 17.1475V16.7857V16.424V16.2681H85.7725H86.1343H86.4961H86.6519C86.6519 16.2681 86.6519 16.32 86.6519 16.424V16.7857V17.1475V17.3034C86.6519 17.3034 86.6 17.3034 86.4961 17.3034H86.1343H85.7725H85.6167ZM87.0284 17.3034C87.0284 17.3034 87.0284 17.2514 87.0284 17.1475V16.7857V16.424V16.2681H87.1843H87.5461H87.9078H88.0637C88.0637 16.2681 88.0637 16.32 88.0637 16.424V16.7857V17.1475V17.3034C88.0637 17.3034 88.0118 17.3034 87.9078 17.3034H87.5461H87.1843H87.0284ZM81.3814 15.8916C81.3814 15.8916 81.3814 15.8397 81.3814 15.7357V15.374V15.0122V14.8563H81.5372H81.899H82.2608H82.4167C82.4167 14.8563 82.4167 14.9083 82.4167 15.0122V15.374V15.7357V15.8916C82.4167 15.8916 82.3647 15.8916 82.2608 15.8916H81.899H81.5372H81.3814ZM87.0284 15.8916C87.0284 15.8916 87.0284 15.8397 87.0284 15.7357V15.374V15.0122V14.8563H87.1843H87.5461H87.9078H88.0637C88.0637 14.8563 88.0637 14.9083 88.0637 15.0122V15.374V15.7357V15.8916C88.0637 15.8916 88.0118 15.8916 87.9078 15.8916H87.5461H87.1843H87.0284ZM81.3814 14.4798C81.3814 14.4798 81.3814 14.4279 81.3814 14.324V13.9622V13.6004V13.4446H81.5372H81.899H82.2608H82.4167C82.4167 13.4446 82.4167 13.4965 82.4167 13.6004V13.9622V14.324V14.4798C82.4167 14.4798 82.3647 14.4798 82.2608 14.4798H81.899H81.5372H81.3814ZM87.0284 14.4798C87.0284 14.4798 87.0284 14.4279 87.0284 14.324V13.9622V13.6004V13.4446H87.1843H87.5461H87.9078H88.0637C88.0637 13.4446 88.0637 13.4965 88.0637 13.6004V13.9622V14.324V14.4798C88.0637 14.4798 88.0118 14.4798 87.9078 14.4798H87.5461H87.1843H87.0284ZM82.7931 13.0681C82.7931 13.0681 82.7931 13.0161 82.7931 12.9122V12.5504V12.1887V12.0328H82.949H83.3108H83.6725H83.8284C83.8284 12.0328 83.8284 12.0847 83.8284 12.1887V12.5504V12.9122V13.0681C83.8284 13.0681 83.7765 13.0681 83.6725 13.0681H83.3108H82.949H82.7931ZM84.2049 13.0681C84.2049 13.0681 84.2049 13.0161 84.2049 12.9122V12.5504V12.1887V12.0328H84.3608H84.7225H85.0843H85.2402C85.2402 12.0328 85.2402 12.0847 85.2402 12.1887V12.5504V12.9122V13.0681C85.2402 13.0681 85.1882 13.0681 85.0843 13.0681H84.7225H84.3608H84.2049ZM85.6167 13.0681C85.6167 13.0681 85.6167 13.0161 85.6167 12.9122V12.5504V12.1887V12.0328H85.7725H86.1343H86.4961H86.6519C86.6519 12.0328 86.6519 12.0847 86.6519 12.1887V12.5504V12.9122V13.0681C86.6519 13.0681 86.6 13.0681 86.4961 13.0681H86.1343H85.7725H85.6167ZM92.2065 22.9504C92.2065 22.9504 92.2065 22.8985 92.2065 22.7946V22.4328V22.071V21.9151H92.3624H92.7241H93.0859H93.2418C93.2418 21.9151 93.2418 21.9671 93.2418 22.071V22.4328V22.7946V22.9504C93.2418 22.9504 93.1898 22.9504 93.0859 22.9504H92.7241H92.3624H92.2065ZM93.6183 22.9504C93.6183 22.9504 93.6183 22.8985 93.6183 22.7946V22.4328V22.071V21.9151H93.7741H94.1359H94.4977H94.6536C94.6536 21.9151 94.6536 21.9671 94.6536 22.071V22.4328V22.7946V22.9504C94.6536 22.9504 94.6016 22.9504 94.4977 22.9504H94.1359H93.7741H93.6183ZM90.7947 21.5387C90.7947 21.5387 90.7947 21.4867 90.7947 21.3828V21.021V20.6593V20.5034H90.9506H91.3124H91.6741H91.83C91.83 20.5034 91.83 20.5553 91.83 20.6593V21.021V21.3828V21.5387C91.83 21.5387 91.7781 21.5387 91.6741 21.5387H91.3124H90.9506H90.7947ZM90.7947 20.1269C90.7947 20.1269 90.7947 20.0749 90.7947 19.971V19.6093V19.2475V19.0916H90.9506H91.3124H91.6741H91.83C91.83 19.0916 91.83 19.1436 91.83 19.2475V19.6093V19.971V20.1269C91.83 20.1269 91.7781 20.1269 91.6741 20.1269H91.3124H90.9506H90.7947ZM90.7947 18.7151C90.7947 18.7151 90.7947 18.6632 90.7947 18.5593V18.1975V17.8357V17.6798H90.9506H91.3124H91.6741H91.83C91.83 17.6798 91.83 17.7318 91.83 17.8357V18.1975V18.5593V18.7151C91.83 18.7151 91.7781 18.7151 91.6741 18.7151H91.3124H90.9506H90.7947ZM90.7947 17.3034C90.7947 17.3034 90.7947 17.2514 90.7947 17.1475V16.7857V16.424V16.2681H90.9506H91.3124H91.6741H91.83C91.83 16.2681 91.83 16.32 91.83 16.424V16.7857V17.1475V17.3034C91.83 17.3034 91.7781 17.3034 91.6741 17.3034H91.3124H90.9506H90.7947ZM90.7947 15.8916C90.7947 15.8916 90.7947 15.8397 90.7947 15.7357V15.374V15.0122V14.8563H90.9506H91.3124H91.6741H91.83C91.83 14.8563 91.83 14.9083 91.83 15.0122V15.374V15.7357V15.8916C91.83 15.8916 91.7781 15.8916 91.6741 15.8916H91.3124H90.9506H90.7947ZM90.7947 14.4798C90.7947 14.4798 90.7947 14.4279 90.7947 14.324V13.9622V13.6004V13.4446H90.9506H91.3124H91.6741H91.83C91.83 13.4446 91.83 13.4965 91.83 13.6004V13.9622V14.324V14.4798C91.83 14.4798 91.7781 14.4798 91.6741 14.4798H91.3124H90.9506H90.7947ZM89.383 13.0681C89.383 13.0681 89.383 13.0161 89.383 12.9122V12.5504V12.1887V12.0328H89.5389H89.9006H90.2624H90.4183C90.4183 12.0328 90.4183 12.0847 90.4183 12.1887V12.5504V12.9122V13.0681C90.4183 13.0681 90.3663 13.0681 90.2624 13.0681H89.9006H89.5389H89.383ZM90.7947 13.0681C90.7947 13.0681 90.7947 13.0161 90.7947 12.9122V12.5504V12.1887V12.0328H90.9506H91.3124H91.6741H91.83C91.83 12.0328 91.83 12.0847 91.83 12.1887V12.5504V12.9122V13.0681C91.83 13.0681 91.7781 13.0681 91.6741 13.0681H91.3124H90.9506H90.7947ZM92.2065 13.0681C92.2065 13.0681 92.2065 13.0161 92.2065 12.9122V12.5504V12.1887V12.0328H92.3624H92.7241H93.0859H93.2418C93.2418 12.0328 93.2418 12.0847 93.2418 12.1887V12.5504V12.9122V13.0681C93.2418 13.0681 93.1898 13.0681 93.0859 13.0681H92.7241H92.3624H92.2065ZM93.6183 13.0681C93.6183 13.0681 93.6183 13.0161 93.6183 12.9122V12.5504V12.1887V12.0328H93.7741H94.1359H94.4977H94.6536C94.6536 12.0328 94.6536 12.0847 94.6536 12.1887V12.5504V12.9122V13.0681C94.6536 13.0681 94.6016 13.0681 94.4977 13.0681H94.1359H93.7741H93.6183ZM90.7947 11.6563C90.7947 11.6563 90.7947 11.6044 90.7947 11.5004V11.1387V10.7769V10.621H90.9506H91.3124H91.6741H91.83C91.83 10.621 91.83 10.673 91.83 10.7769V11.1387V11.5004V11.6563C91.83 11.6563 91.7781 11.6563 91.6741 11.6563H91.3124H90.9506H90.7947ZM90.7947 10.2446C90.7947 10.2446 90.7947 10.1926 90.7947 10.0887V9.72691V9.36514V9.20926H90.9506H91.3124H91.6741H91.83C91.83 9.20926 91.83 9.26122 91.83 9.36514V9.72691V10.0887V10.2446C91.83 10.2446 91.7781 10.2446 91.6741 10.2446H91.3124H90.9506H90.7947ZM96.6635 22.9504C96.6635 22.9504 96.6635 22.8985 96.6635 22.7946V22.4328V22.071V21.9151H96.8194H97.1812H97.543H97.6988C97.6988 21.9151 97.6988 21.9671 97.6988 22.071V22.4328V22.7946V22.9504C97.6988 22.9504 97.6469 22.9504 97.543 22.9504H97.1812H96.8194H96.6635ZM102.311 22.9504C102.311 22.9504 102.311 22.8985 102.311 22.7946V22.4328V22.071V21.9151H102.466H102.828H103.19H103.346C103.346 21.9151 103.346 21.9671 103.346 22.071V22.4328V22.7946V22.9504C103.346 22.9504 103.294 22.9504 103.19 22.9504H102.828H102.466H102.311ZM96.6635 21.5387C96.6635 21.5387 96.6635 21.4867 96.6635 21.3828V21.021V20.6593V20.5034H96.8194H97.1812H97.543H97.6988C97.6988 20.5034 97.6988 20.5553 97.6988 20.6593V21.021V21.3828V21.5387C97.6988 21.5387 97.6469 21.5387 97.543 21.5387H97.1812H96.8194H96.6635ZM102.311 21.5387C102.311 21.5387 102.311 21.4867 102.311 21.3828V21.021V20.6593V20.5034H102.466H102.828H103.19H103.346C103.346 20.5034 103.346 20.5553 103.346 20.6593V21.021V21.3828V21.5387C103.346 21.5387 103.294 21.5387 103.19 21.5387H102.828H102.466H102.311ZM96.6635 20.1269C96.6635 20.1269 96.6635 20.0749 96.6635 19.971V19.6093V19.2475V19.0916H96.8194H97.1812H97.543H97.6988C97.6988 19.0916 97.6988 19.1436 97.6988 19.2475V19.6093V19.971V20.1269C97.6988 20.1269 97.6469 20.1269 97.543 20.1269H97.1812H96.8194H96.6635ZM102.311 20.1269C102.311 20.1269 102.311 20.0749 102.311 19.971V19.6093V19.2475V19.0916H102.466H102.828H103.19H103.346C103.346 19.0916 103.346 19.1436 103.346 19.2475V19.6093V19.971V20.1269C103.346 20.1269 103.294 20.1269 103.19 20.1269H102.828H102.466H102.311ZM96.6635 18.7151C96.6635 18.7151 96.6635 18.6632 96.6635 18.5593V18.1975V17.8357V17.6798H96.8194H97.1812H97.543H97.6988C97.6988 17.6798 97.6988 17.7318 97.6988 17.8357V18.1975V18.5593V18.7151C97.6988 18.7151 97.6469 18.7151 97.543 18.7151H97.1812H96.8194H96.6635ZM102.311 18.7151C102.311 18.7151 102.311 18.6632 102.311 18.5593V18.1975V17.8357V17.6798H102.466H102.828H103.19H103.346C103.346 17.6798 103.346 17.7318 103.346 17.8357V18.1975V18.5593V18.7151C103.346 18.7151 103.294 18.7151 103.19 18.7151H102.828H102.466H102.311ZM96.6635 17.3034C96.6635 17.3034 96.6635 17.2514 96.6635 17.1475V16.7857V16.424V16.2681H96.8194H97.1812H97.543H97.6988C97.6988 16.2681 97.6988 16.32 97.6988 16.424V16.7857V17.1475V17.3034C97.6988 17.3034 97.6469 17.3034 97.543 17.3034H97.1812H96.8194H96.6635ZM102.311 17.3034C102.311 17.3034 102.311 17.2514 102.311 17.1475V16.7857V16.424V16.2681H102.466H102.828H103.19H103.346C103.346 16.2681 103.346 16.32 103.346 16.424V16.7857V17.1475V17.3034C103.346 17.3034 103.294 17.3034 103.19 17.3034H102.828H102.466H102.311ZM96.6635 15.8916C96.6635 15.8916 96.6635 15.8397 96.6635 15.7357V15.374V15.0122V14.8563H96.8194H97.1812H97.543H97.6988C97.6988 14.8563 97.6988 14.9083 97.6988 15.0122V15.374V15.7357V15.8916C97.6988 15.8916 97.6469 15.8916 97.543 15.8916H97.1812H96.8194H96.6635ZM102.311 15.8916C102.311 15.8916 102.311 15.8397 102.311 15.7357V15.374V15.0122V14.8563H102.466H102.828H103.19H103.346C103.346 14.8563 103.346 14.9083 103.346 15.0122V15.374V15.7357V15.8916C103.346 15.8916 103.294 15.8916 103.19 15.8916H102.828H102.466H102.311ZM96.6635 14.4798C96.6635 14.4798 96.6635 14.4279 96.6635 14.324V13.9622V13.6004V13.4446H96.8194H97.1812H97.543H97.6988C97.6988 13.4446 97.6988 13.4965 97.6988 13.6004V13.9622V14.324V14.4798C97.6988 14.4798 97.6469 14.4798 97.543 14.4798H97.1812H96.8194H96.6635ZM98.0753 14.4798C98.0753 14.4798 98.0753 14.4279 98.0753 14.324V13.9622V13.6004V13.4446H98.2312H98.593H98.9547H99.1106C99.1106 13.4446 99.1106 13.4965 99.1106 13.6004V13.9622V14.324V14.4798C99.1106 14.4798 99.0586 14.4798 98.9547 14.4798H98.593H98.2312H98.0753ZM102.311 14.4798C102.311 14.4798 102.311 14.4279 102.311 14.324V13.9622V13.6004V13.4446H102.466H102.828H103.19H103.346C103.346 13.4446 103.346 13.4965 103.346 13.6004V13.9622V14.324V14.4798C103.346 14.4798 103.294 14.4798 103.19 14.4798H102.828H102.466H102.311ZM96.6635 13.0681C96.6635 13.0681 96.6635 13.0161 96.6635 12.9122V12.5504V12.1887V12.0328H96.8194H97.1812H97.543H97.6988C97.6988 12.0328 97.6988 12.0847 97.6988 12.1887V12.5504V12.9122V13.0681C97.6988 13.0681 97.6469 13.0681 97.543 13.0681H97.1812H96.8194H96.6635ZM99.4871 13.0681C99.4871 13.0681 99.4871 13.0161 99.4871 12.9122V12.5504V12.1887V12.0328H99.643H100.005H100.366H100.522C100.522 12.0328 100.522 12.0847 100.522 12.1887V12.5504V12.9122V13.0681C100.522 13.0681 100.47 13.0681 100.366 13.0681H100.005H99.643H99.4871ZM100.899 13.0681C100.899 13.0681 100.899 13.0161 100.899 12.9122V12.5504V12.1887V12.0328H101.055H101.416H101.778H101.934C101.934 12.0328 101.934 12.0847 101.934 12.1887V12.5504V12.9122V13.0681C101.934 13.0681 101.882 13.0681 101.778 13.0681H101.416H101.055H100.899ZM96.6635 11.6563C96.6635 11.6563 96.6635 11.6044 96.6635 11.5004V11.1387V10.7769V10.621H96.8194H97.1812H97.543H97.6988C97.6988 10.621 97.6988 10.673 97.6988 10.7769V11.1387V11.5004V11.6563C97.6988 11.6563 97.6469 11.6563 97.543 11.6563H97.1812H96.8194H96.6635ZM96.6635 10.2446C96.6635 10.2446 96.6635 10.1926 96.6635 10.0887V9.72691V9.36514V9.20926H96.8194H97.1812H97.543H97.6988C97.6988 9.20926 97.6988 9.26122 97.6988 9.36514V9.72691V10.0887V10.2446C97.6988 10.2446 97.6469 10.2446 97.543 10.2446H97.1812H96.8194H96.6635ZM96.6635 8.83279C96.6635 8.83279 96.6635 8.78083 96.6635 8.67691V8.31514V7.95338V7.79749H96.8194H97.1812H97.543H97.6988C97.6988 7.79749 97.6988 7.84946 97.6988 7.95338V8.31514V8.67691V8.83279C97.6988 8.83279 97.6469 8.83279 97.543 8.83279H97.1812H96.8194H96.6635ZM96.6635 7.42102C96.6635 7.42102 96.6635 7.36906 96.6635 7.26514V6.90338V6.54161V6.38573H96.8194H97.1812H97.543H97.6988C97.6988 6.38573 97.6988 6.43769 97.6988 6.54161V6.90338V7.26514V7.42102C97.6988 7.42102 97.6469 7.42102 97.543 7.42102H97.1812H96.8194H96.6635ZM107.486 22.9504C107.486 22.9504 107.486 22.8985 107.486 22.7946V22.4328V22.071V21.9151H107.642H108.004H108.365H108.521C108.521 21.9151 108.521 21.9671 108.521 22.071V22.4328V22.7946V22.9504C108.521 22.9504 108.469 22.9504 108.365 22.9504H108.004H107.642H107.486ZM108.898 22.9504C108.898 22.9504 108.898 22.8985 108.898 22.7946V22.4328V22.071V21.9151H109.054H109.415H109.777H109.933C109.933 21.9151 109.933 21.9671 109.933 22.071V22.4328V22.7946V22.9504C109.933 22.9504 109.881 22.9504 109.777 22.9504H109.415H109.054H108.898ZM110.309 22.9504C110.309 22.9504 110.309 22.8985 110.309 22.7946V22.4328V22.071V21.9151H110.465H110.827H111.189H111.345C111.345 21.9151 111.345 21.9671 111.345 22.071V22.4328V22.7946V22.9504C111.345 22.9504 111.293 22.9504 111.189 22.9504H110.827H110.465H110.309ZM106.074 21.5387C106.074 21.5387 106.074 21.4867 106.074 21.3828V21.021V20.6593V20.5034H106.23H106.592H106.954H107.109C107.109 20.5034 107.109 20.5553 107.109 20.6593V21.021V21.3828V21.5387C107.109 21.5387 107.058 21.5387 106.954 21.5387H106.592H106.23H106.074ZM111.721 21.5387C111.721 21.5387 111.721 21.4867 111.721 21.3828V21.021V20.6593V20.5034H111.877H112.239H112.601H112.757C112.757 20.5034 112.757 20.5553 112.757 20.6593V21.021V21.3828V21.5387C112.757 21.5387 112.705 21.5387 112.601 21.5387H112.239H111.877H111.721ZM106.074 20.1269C106.074 20.1269 106.074 20.0749 106.074 19.971V19.6093V19.2475V19.0916H106.23H106.592H106.954H107.109C107.109 19.0916 107.109 19.1436 107.109 19.2475V19.6093V19.971V20.1269C107.109 20.1269 107.058 20.1269 106.954 20.1269H106.592H106.23H106.074ZM106.074 18.7151C106.074 18.7151 106.074 18.6632 106.074 18.5593V18.1975V17.8357V17.6798H106.23H106.592H106.954H107.109C107.109 17.6798 107.109 17.7318 107.109 17.8357V18.1975V18.5593V18.7151C107.109 18.7151 107.058 18.7151 106.954 18.7151H106.592H106.23H106.074ZM106.074 17.3034C106.074 17.3034 106.074 17.2514 106.074 17.1475V16.7857V16.424V16.2681H106.23H106.592H106.954H107.109C107.109 16.2681 107.109 16.32 107.109 16.424V16.7857V17.1475V17.3034C107.109 17.3034 107.058 17.3034 106.954 17.3034H106.592H106.23H106.074ZM107.486 17.3034C107.486 17.3034 107.486 17.2514 107.486 17.1475V16.7857V16.424V16.2681H107.642H108.004H108.365H108.521C108.521 16.2681 108.521 16.32 108.521 16.424V16.7857V17.1475V17.3034C108.521 17.3034 108.469 17.3034 108.365 17.3034H108.004H107.642H107.486ZM108.898 17.3034C108.898 17.3034 108.898 17.2514 108.898 17.1475V16.7857V16.424V16.2681H109.054H109.415H109.777H109.933C109.933 16.2681 109.933 16.32 109.933 16.424V16.7857V17.1475V17.3034C109.933 17.3034 109.881 17.3034 109.777 17.3034H109.415H109.054H108.898ZM110.309 17.3034C110.309 17.3034 110.309 17.2514 110.309 17.1475V16.7857V16.424V16.2681H110.465H110.827H111.189H111.345C111.345 16.2681 111.345 16.32 111.345 16.424V16.7857V17.1475V17.3034C111.345 17.3034 111.293 17.3034 111.189 17.3034H110.827H110.465H110.309ZM111.721 17.3034C111.721 17.3034 111.721 17.2514 111.721 17.1475V16.7857V16.424V16.2681H111.877H112.239H112.601H112.757C112.757 16.2681 112.757 16.32 112.757 16.424V16.7857V17.1475V17.3034C112.757 17.3034 112.705 17.3034 112.601 17.3034H112.239H111.877H111.721ZM106.074 15.8916C106.074 15.8916 106.074 15.8397 106.074 15.7357V15.374V15.0122V14.8563H106.23H106.592H106.954H107.109C107.109 14.8563 107.109 14.9083 107.109 15.0122V15.374V15.7357V15.8916C107.109 15.8916 107.058 15.8916 106.954 15.8916H106.592H106.23H106.074ZM111.721 15.8916C111.721 15.8916 111.721 15.8397 111.721 15.7357V15.374V15.0122V14.8563H111.877H112.239H112.601H112.757C112.757 14.8563 112.757 14.9083 112.757 15.0122V15.374V15.7357V15.8916C112.757 15.8916 112.705 15.8916 112.601 15.8916H112.239H111.877H111.721ZM106.074 14.4798C106.074 14.4798 106.074 14.4279 106.074 14.324V13.9622V13.6004V13.4446H106.23H106.592H106.954H107.109C107.109 13.4446 107.109 13.4965 107.109 13.6004V13.9622V14.324V14.4798C107.109 14.4798 107.058 14.4798 106.954 14.4798H106.592H106.23H106.074ZM111.721 14.4798C111.721 14.4798 111.721 14.4279 111.721 14.324V13.9622V13.6004V13.4446H111.877H112.239H112.601H112.757C112.757 13.4446 112.757 13.4965 112.757 13.6004V13.9622V14.324V14.4798C112.757 14.4798 112.705 14.4798 112.601 14.4798H112.239H111.877H111.721ZM107.486 13.0681C107.486 13.0681 107.486 13.0161 107.486 12.9122V12.5504V12.1887V12.0328H107.642H108.004H108.365H108.521C108.521 12.0328 108.521 12.0847 108.521 12.1887V12.5504V12.9122V13.0681C108.521 13.0681 108.469 13.0681 108.365 13.0681H108.004H107.642H107.486ZM108.898 13.0681C108.898 13.0681 108.898 13.0161 108.898 12.9122V12.5504V12.1887V12.0328H109.054H109.415H109.777H109.933C109.933 12.0328 109.933 12.0847 109.933 12.1887V12.5504V12.9122V13.0681C109.933 13.0681 109.881 13.0681 109.777 13.0681H109.415H109.054H108.898ZM110.309 13.0681C110.309 13.0681 110.309 13.0161 110.309 12.9122V12.5504V12.1887V12.0328H110.465H110.827H111.189H111.345C111.345 12.0328 111.345 12.0847 111.345 12.1887V12.5504V12.9122V13.0681C111.345 13.0681 111.293 13.0681 111.189 13.0681H110.827H110.465H110.309ZM116.193 22.9504C116.193 22.9504 116.193 22.8985 116.193 22.7946V22.4328V22.071V21.9151H116.349H116.711H117.073H117.229C117.229 21.9151 117.229 21.9671 117.229 22.071V22.4328V22.7946V22.9504C117.229 22.9504 117.177 22.9504 117.073 22.9504H116.711H116.349H116.193ZM117.605 22.9504C117.605 22.9504 117.605 22.8985 117.605 22.7946V22.4328V22.071V21.9151H117.761H118.123H118.485H118.64C118.64 21.9151 118.64 21.9671 118.64 22.071V22.4328V22.7946V22.9504C118.64 22.9504 118.589 22.9504 118.485 22.9504H118.123H117.761H117.605ZM120.429 22.9504C120.429 22.9504 120.429 22.8985 120.429 22.7946V22.4328V22.071V21.9151H120.585H120.946H121.308H121.464C121.464 21.9151 121.464 21.9671 121.464 22.071V22.4328V22.7946V22.9504C121.464 22.9504 121.412 22.9504 121.308 22.9504H120.946H120.585H120.429ZM114.782 21.5387C114.782 21.5387 114.782 21.4867 114.782 21.3828V21.021V20.6593V20.5034H114.938H115.299H115.661H115.817C115.817 20.5034 115.817 20.5553 115.817 20.6593V21.021V21.3828V21.5387C115.817 21.5387 115.765 21.5387 115.661 21.5387H115.299H114.938H114.782ZM119.017 21.5387C119.017 21.5387 119.017 21.4867 119.017 21.3828V21.021V20.6593V20.5034H119.173H119.535H119.896H120.052C120.052 20.5034 120.052 20.5553 120.052 20.6593V21.021V21.3828V21.5387C120.052 21.5387 120 21.5387 119.896 21.5387H119.535H119.173H119.017ZM120.429 21.5387C120.429 21.5387 120.429 21.4867 120.429 21.3828V21.021V20.6593V20.5034H120.585H120.946H121.308H121.464C121.464 20.5034 121.464 20.5553 121.464 20.6593V21.021V21.3828V21.5387C121.464 21.5387 121.412 21.5387 121.308 21.5387H120.946H120.585H120.429ZM114.782 20.1269C114.782 20.1269 114.782 20.0749 114.782 19.971V19.6093V19.2475V19.0916H114.938H115.299H115.661H115.817C115.817 19.0916 115.817 19.1436 115.817 19.2475V19.6093V19.971V20.1269C115.817 20.1269 115.765 20.1269 115.661 20.1269H115.299H114.938H114.782ZM120.429 20.1269C120.429 20.1269 120.429 20.0749 120.429 19.971V19.6093V19.2475V19.0916H120.585H120.946H121.308H121.464C121.464 19.0916 121.464 19.1436 121.464 19.2475V19.6093V19.971V20.1269C121.464 20.1269 121.412 20.1269 121.308 20.1269H120.946H120.585H120.429ZM114.782 18.7151C114.782 18.7151 114.782 18.6632 114.782 18.5593V18.1975V17.8357V17.6798H114.938H115.299H115.661H115.817C115.817 17.6798 115.817 17.7318 115.817 17.8357V18.1975V18.5593V18.7151C115.817 18.7151 115.765 18.7151 115.661 18.7151H115.299H114.938H114.782ZM120.429 18.7151C120.429 18.7151 120.429 18.6632 120.429 18.5593V18.1975V17.8357V17.6798H120.585H120.946H121.308H121.464C121.464 17.6798 121.464 17.7318 121.464 17.8357V18.1975V18.5593V18.7151C121.464 18.7151 121.412 18.7151 121.308 18.7151H120.946H120.585H120.429ZM114.782 17.3034C114.782 17.3034 114.782 17.2514 114.782 17.1475V16.7857V16.424V16.2681H114.938H115.299H115.661H115.817C115.817 16.2681 115.817 16.32 115.817 16.424V16.7857V17.1475V17.3034C115.817 17.3034 115.765 17.3034 115.661 17.3034H115.299H114.938H114.782ZM120.429 17.3034C120.429 17.3034 120.429 17.2514 120.429 17.1475V16.7857V16.424V16.2681H120.585H120.946H121.308H121.464C121.464 16.2681 121.464 16.32 121.464 16.424V16.7857V17.1475V17.3034C121.464 17.3034 121.412 17.3034 121.308 17.3034H120.946H120.585H120.429ZM114.782 15.8916C114.782 15.8916 114.782 15.8397 114.782 15.7357V15.374V15.0122V14.8563H114.938H115.299H115.661H115.817C115.817 14.8563 115.817 14.9083 115.817 15.0122V15.374V15.7357V15.8916C115.817 15.8916 115.765 15.8916 115.661 15.8916H115.299H114.938H114.782ZM120.429 15.8916C120.429 15.8916 120.429 15.8397 120.429 15.7357V15.374V15.0122V14.8563H120.585H120.946H121.308H121.464C121.464 14.8563 121.464 14.9083 121.464 15.0122V15.374V15.7357V15.8916C121.464 15.8916 121.412 15.8916 121.308 15.8916H120.946H120.585H120.429ZM114.782 14.4798C114.782 14.4798 114.782 14.4279 114.782 14.324V13.9622V13.6004V13.4446H114.938H115.299H115.661H115.817C115.817 13.4446 115.817 13.4965 115.817 13.6004V13.9622V14.324V14.4798C115.817 14.4798 115.765 14.4798 115.661 14.4798H115.299H114.938H114.782ZM120.429 14.4798C120.429 14.4798 120.429 14.4279 120.429 14.324V13.9622V13.6004V13.4446H120.585H120.946H121.308H121.464C121.464 13.4446 121.464 13.4965 121.464 13.6004V13.9622V14.324V14.4798C121.464 14.4798 121.412 14.4798 121.308 14.4798H120.946H120.585H120.429ZM114.782 13.0681C114.782 13.0681 114.782 13.0161 114.782 12.9122V12.5504V12.1887V12.0328H114.938H115.299H115.661H115.817C115.817 12.0328 115.817 12.0847 115.817 12.1887V12.5504V12.9122V13.0681C115.817 13.0681 115.765 13.0681 115.661 13.0681H115.299H114.938H114.782ZM120.429 13.0681C120.429 13.0681 120.429 13.0161 120.429 12.9122V12.5504V12.1887V12.0328H120.585H120.946H121.308H121.464C121.464 12.0328 121.464 12.0847 121.464 12.1887V12.5504V12.9122V13.0681C121.464 13.0681 121.412 13.0681 121.308 13.0681H120.946H120.585H120.429ZM125.604 22.9504C125.604 22.9504 125.604 22.8985 125.604 22.7946V22.4328V22.071V21.9151H125.76H126.122H126.483H126.639C126.639 21.9151 126.639 21.9671 126.639 22.071V22.4328V22.7946V22.9504C126.639 22.9504 126.587 22.9504 126.483 22.9504H126.122H125.76H125.604ZM127.016 22.9504C127.016 22.9504 127.016 22.8985 127.016 22.7946V22.4328V22.071V21.9151H127.172H127.533H127.895H128.051C128.051 21.9151 128.051 21.9671 128.051 22.071V22.4328V22.7946V22.9504C128.051 22.9504 127.999 22.9504 127.895 22.9504H127.533H127.172H127.016ZM128.428 22.9504C128.428 22.9504 128.428 22.8985 128.428 22.7946V22.4328V22.071V21.9151H128.583H128.945H129.307H129.463C129.463 21.9151 129.463 21.9671 129.463 22.071V22.4328V22.7946V22.9504C129.463 22.9504 129.411 22.9504 129.307 22.9504H128.945H128.583H128.428ZM124.192 21.5387C124.192 21.5387 124.192 21.4867 124.192 21.3828V21.021V20.6593V20.5034H124.348H124.71H125.072H125.228C125.228 20.5034 125.228 20.5553 125.228 20.6593V21.021V21.3828V21.5387C125.228 21.5387 125.176 21.5387 125.072 21.5387H124.71H124.348H124.192ZM129.839 21.5387C129.839 21.5387 129.839 21.4867 129.839 21.3828V21.021V20.6593V20.5034H129.995H130.357H130.719H130.875C130.875 20.5034 130.875 20.5553 130.875 20.6593V21.021V21.3828V21.5387C130.875 21.5387 130.823 21.5387 130.719 21.5387H130.357H129.995H129.839ZM124.192 20.1269C124.192 20.1269 124.192 20.0749 124.192 19.971V19.6093V19.2475V19.0916H124.348H124.71H125.072H125.228C125.228 19.0916 125.228 19.1436 125.228 19.2475V19.6093V19.971V20.1269C125.228 20.1269 125.176 20.1269 125.072 20.1269H124.71H124.348H124.192ZM129.839 20.1269C129.839 20.1269 129.839 20.0749 129.839 19.971V19.6093V19.2475V19.0916H129.995H130.357H130.719H130.875C130.875 19.0916 130.875 19.1436 130.875 19.2475V19.6093V19.971V20.1269C130.875 20.1269 130.823 20.1269 130.719 20.1269H130.357H129.995H129.839ZM128.428 18.7151C128.428 18.7151 128.428 18.6632 128.428 18.5593V18.1975V17.8357V17.6798H128.583H128.945H129.307H129.463C129.463 17.6798 129.463 17.7318 129.463 17.8357V18.1975V18.5593V18.7151C129.463 18.7151 129.411 18.7151 129.307 18.7151H128.945H128.583H128.428ZM127.016 18.0093C127.016 18.0093 127.016 17.9573 127.016 17.8534V17.4916V17.1298V16.974H127.172H127.533H127.895H128.051C128.051 16.974 128.051 17.0259 128.051 17.1298V17.4916V17.8534V18.0093C128.051 18.0093 127.999 18.0093 127.895 18.0093H127.533H127.172H127.016ZM125.604 17.3034C125.604 17.3034 125.604 17.2514 125.604 17.1475V16.7857V16.424V16.2681H125.76H126.122H126.483H126.639C126.639 16.2681 126.639 16.32 126.639 16.424V16.7857V17.1475V17.3034C126.639 17.3034 126.587 17.3034 126.483 17.3034H126.122H125.76H125.604ZM124.192 15.8916C124.192 15.8916 124.192 15.8397 124.192 15.7357V15.374V15.0122V14.8563H124.348H124.71H125.072H125.228C125.228 14.8563 125.228 14.9083 125.228 15.0122V15.374V15.7357V15.8916C125.228 15.8916 125.176 15.8916 125.072 15.8916H124.71H124.348H124.192ZM129.839 15.8916C129.839 15.8916 129.839 15.8397 129.839 15.7357V15.374V15.0122V14.8563H129.995H130.357H130.719H130.875C130.875 14.8563 130.875 14.9083 130.875 15.0122V15.374V15.7357V15.8916C130.875 15.8916 130.823 15.8916 130.719 15.8916H130.357H129.995H129.839ZM124.192 14.4798C124.192 14.4798 124.192 14.4279 124.192 14.324V13.9622V13.6004V13.4446H124.348H124.71H125.072H125.228C125.228 13.4446 125.228 13.4965 125.228 13.6004V13.9622V14.324V14.4798C125.228 14.4798 125.176 14.4798 125.072 14.4798H124.71H124.348H124.192ZM129.839 14.4798C129.839 14.4798 129.839 14.4279 129.839 14.324V13.9622V13.6004V13.4446H129.995H130.357H130.719H130.875C130.875 13.4446 130.875 13.4965 130.875 13.6004V13.9622V14.324V14.4798C130.875 14.4798 130.823 14.4798 130.719 14.4798H130.357H129.995H129.839ZM125.604 13.0681C125.604 13.0681 125.604 13.0161 125.604 12.9122V12.5504V12.1887V12.0328H125.76H126.122H126.483H126.639C126.639 12.0328 126.639 12.0847 126.639 12.1887V12.5504V12.9122V13.0681C126.639 13.0681 126.587 13.0681 126.483 13.0681H126.122H125.76H125.604ZM127.016 13.0681C127.016 13.0681 127.016 13.0161 127.016 12.9122V12.5504V12.1887V12.0328H127.172H127.533H127.895H128.051C128.051 12.0328 128.051 12.0847 128.051 12.1887V12.5504V12.9122V13.0681C128.051 13.0681 127.999 13.0681 127.895 13.0681H127.533H127.172H127.016ZM128.428 13.0681C128.428 13.0681 128.428 13.0161 128.428 12.9122V12.5504V12.1887V12.0328H128.583H128.945H129.307H129.463C129.463 12.0328 129.463 12.0847 129.463 12.1887V12.5504V12.9122V13.0681C129.463 13.0681 129.411 13.0681 129.307 13.0681H128.945H128.583H128.428ZM138.777 22.9504C138.777 22.9504 138.777 22.8985 138.777 22.7946V22.4328V22.071V21.9151H138.933H139.295H139.656H139.812C139.812 21.9151 139.812 21.9671 139.812 22.071V22.4328V22.7946V22.9504C139.812 22.9504 139.76 22.9504 139.656 22.9504H139.295H138.933H138.777ZM140.189 22.9504C140.189 22.9504 140.189 22.8985 140.189 22.7946V22.4328V22.071V21.9151H140.345H140.706H141.068H141.224C141.224 21.9151 141.224 21.9671 141.224 22.071V22.4328V22.7946V22.9504C141.224 22.9504 141.172 22.9504 141.068 22.9504H140.706H140.345H140.189ZM141.6 22.9504C141.6 22.9504 141.6 22.8985 141.6 22.7946V22.4328V22.071V21.9151H141.756H142.118H142.48H142.636C142.636 21.9151 142.636 21.9671 142.636 22.071V22.4328V22.7946V22.9504C142.636 22.9504 142.584 22.9504 142.48 22.9504H142.118H141.756H141.6ZM137.365 21.5387C137.365 21.5387 137.365 21.4867 137.365 21.3828V21.021V20.6593V20.5034H137.521H137.883H138.245H138.4C138.4 20.5034 138.4 20.5553 138.4 20.6593V21.021V21.3828V21.5387C138.4 21.5387 138.348 21.5387 138.245 21.5387H137.883H137.521H137.365ZM143.012 21.5387C143.012 21.5387 143.012 21.4867 143.012 21.3828V21.021V20.6593V20.5034H143.168H143.53H143.892H144.047C144.047 20.5034 144.047 20.5553 144.047 20.6593V21.021V21.3828V21.5387C144.047 21.5387 143.995 21.5387 143.892 21.5387H143.53H143.168H143.012ZM137.365 20.1269C137.365 20.1269 137.365 20.0749 137.365 19.971V19.6093V19.2475V19.0916H137.521H137.883H138.245H138.4C138.4 19.0916 138.4 19.1436 138.4 19.2475V19.6093V19.971V20.1269C138.4 20.1269 138.348 20.1269 138.245 20.1269H137.883H137.521H137.365ZM143.012 20.1269C143.012 20.1269 143.012 20.0749 143.012 19.971V19.6093V19.2475V19.0916H143.168H143.53H143.892H144.047C144.047 19.0916 144.047 19.1436 144.047 19.2475V19.6093V19.971V20.1269C144.047 20.1269 143.995 20.1269 143.892 20.1269H143.53H143.168H143.012ZM137.365 18.7151C137.365 18.7151 137.365 18.6632 137.365 18.5593V18.1975V17.8357V17.6798H137.521H137.883H138.245H138.4C138.4 17.6798 138.4 17.7318 138.4 17.8357V18.1975V18.5593V18.7151C138.4 18.7151 138.348 18.7151 138.245 18.7151H137.883H137.521H137.365ZM143.012 18.7151C143.012 18.7151 143.012 18.6632 143.012 18.5593V18.1975V17.8357V17.6798H143.168H143.53H143.892H144.047C144.047 17.6798 144.047 17.7318 144.047 17.8357V18.1975V18.5593V18.7151C144.047 18.7151 143.995 18.7151 143.892 18.7151H143.53H143.168H143.012ZM141.6 17.3034C141.6 17.3034 141.6 17.2514 141.6 17.1475V16.7857V16.424V16.2681H141.756H142.118H142.48H142.636C142.636 16.2681 142.636 16.32 142.636 16.424V16.7857V17.1475V17.3034C142.636 17.3034 142.584 17.3034 142.48 17.3034H142.118H141.756H141.6ZM140.189 15.8916C140.189 15.8916 140.189 15.8397 140.189 15.7357V15.374V15.0122V14.8563H140.345H140.706H141.068H141.224C141.224 14.8563 141.224 14.9083 141.224 15.0122V15.374V15.7357V15.8916C141.224 15.8916 141.172 15.8916 141.068 15.8916H140.706H140.345H140.189ZM138.777 14.4798C138.777 14.4798 138.777 14.4279 138.777 14.324V13.9622V13.6004V13.4446H138.933H139.295H139.656H139.812C139.812 13.4446 139.812 13.4965 139.812 13.6004V13.9622V14.324V14.4798C139.812 14.4798 139.76 14.4798 139.656 14.4798H139.295H138.933H138.777ZM137.365 13.0681C137.365 13.0681 137.365 13.0161 137.365 12.9122V12.5504V12.1887V12.0328H137.521H137.883H138.245H138.4C138.4 12.0328 138.4 12.0847 138.4 12.1887V12.5504V12.9122V13.0681C138.4 13.0681 138.348 13.0681 138.245 13.0681H137.883H137.521H137.365ZM137.365 11.6563C137.365 11.6563 137.365 11.6044 137.365 11.5004V11.1387V10.7769V10.621H137.521H137.883H138.245H138.4C138.4 10.621 138.4 10.673 138.4 10.7769V11.1387V11.5004V11.6563C138.4 11.6563 138.348 11.6563 138.245 11.6563H137.883H137.521H137.365ZM143.012 11.6563C143.012 11.6563 143.012 11.6044 143.012 11.5004V11.1387V10.7769V10.621H143.168H143.53H143.892H144.047C144.047 10.621 144.047 10.673 144.047 10.7769V11.1387V11.5004V11.6563C144.047 11.6563 143.995 11.6563 143.892 11.6563H143.53H143.168H143.012ZM137.365 10.2446C137.365 10.2446 137.365 10.1926 137.365 10.0887V9.72691V9.36514V9.20926H137.521H137.883H138.245H138.4C138.4 9.20926 138.4 9.26122 138.4 9.36514V9.72691V10.0887V10.2446C138.4 10.2446 138.348 10.2446 138.245 10.2446H137.883H137.521H137.365ZM143.012 10.2446C143.012 10.2446 143.012 10.1926 143.012 10.0887V9.72691V9.36514V9.20926H143.168H143.53H143.892H144.047C144.047 9.20926 144.047 9.26122 144.047 9.36514V9.72691V10.0887V10.2446C144.047 10.2446 143.995 10.2446 143.892 10.2446H143.53H143.168H143.012ZM138.777 8.83279C138.777 8.83279 138.777 8.78083 138.777 8.67691V8.31514V7.95338V7.79749H138.933H139.295H139.656H139.812C139.812 7.79749 139.812 7.84946 139.812 7.95338V8.31514V8.67691V8.83279C139.812 8.83279 139.76 8.83279 139.656 8.83279H139.295H138.933H138.777ZM140.189 8.83279C140.189 8.83279 140.189 8.78083 140.189 8.67691V8.31514V7.95338V7.79749H140.345H140.706H141.068H141.224C141.224 7.79749 141.224 7.84946 141.224 7.95338V8.31514V8.67691V8.83279C141.224 8.83279 141.172 8.83279 141.068 8.83279H140.706H140.345H140.189ZM141.6 8.83279C141.6 8.83279 141.6 8.78083 141.6 8.67691V8.31514V7.95338V7.79749H141.756H142.118H142.48H142.636C142.636 7.79749 142.636 7.84946 142.636 7.95338V8.31514V8.67691V8.83279C142.636 8.83279 142.584 8.83279 142.48 8.83279H142.118H141.756H141.6ZM148.187 22.9504C148.187 22.9504 148.187 22.8985 148.187 22.7946V22.4328V22.071V21.9151H148.343H148.705H149.067H149.223C149.223 21.9151 149.223 21.9671 149.223 22.071V22.4328V22.7946V22.9504C149.223 22.9504 149.171 22.9504 149.067 22.9504H148.705H148.343H148.187ZM153.835 22.9504C153.835 22.9504 153.835 22.8985 153.835 22.7946V22.4328V22.071V21.9151H153.99H154.352H154.714H154.87C154.87 21.9151 154.87 21.9671 154.87 22.071V22.4328V22.7946V22.9504C154.87 22.9504 154.818 22.9504 154.714 22.9504H154.352H153.99H153.835ZM147.482 21.5387C147.482 21.5387 147.482 21.4867 147.482 21.3828V21.021V20.6593V20.5034H147.637H147.999H148.361H148.517C148.517 20.5034 148.517 20.5553 148.517 20.6593V21.021V21.3828V21.5387C148.517 21.5387 148.465 21.5387 148.361 21.5387H147.999H147.637H147.482ZM148.893 21.5387C148.893 21.5387 148.893 21.4867 148.893 21.3828V21.021V20.6593V20.5034H149.049H149.411H149.773H149.929C149.929 20.5034 149.929 20.5553 149.929 20.6593V21.021V21.3828V21.5387C149.929 21.5387 149.877 21.5387 149.773 21.5387H149.411H149.049H148.893ZM153.129 21.5387C153.129 21.5387 153.129 21.4867 153.129 21.3828V21.021V20.6593V20.5034H153.285H153.646H154.008H154.164C154.164 20.5034 154.164 20.5553 154.164 20.6593V21.021V21.3828V21.5387C154.164 21.5387 154.112 21.5387 154.008 21.5387H153.646H153.285H153.129ZM154.54 21.5387C154.54 21.5387 154.54 21.4867 154.54 21.3828V21.021V20.6593V20.5034H154.696H155.058H155.42H155.576C155.576 20.5034 155.576 20.5553 155.576 20.6593V21.021V21.3828V21.5387C155.576 21.5387 155.524 21.5387 155.42 21.5387H155.058H154.696H154.54ZM146.776 20.1269C146.776 20.1269 146.776 20.0749 146.776 19.971V19.6093V19.2475V19.0916H146.932H147.293H147.655H147.811C147.811 19.0916 147.811 19.1436 147.811 19.2475V19.6093V19.971V20.1269C147.811 20.1269 147.759 20.1269 147.655 20.1269H147.293H146.932H146.776ZM149.599 20.1269C149.599 20.1269 149.599 20.0749 149.599 19.971V19.6093V19.2475V19.0916H149.755H150.117H150.479H150.635C150.635 19.0916 150.635 19.1436 150.635 19.2475V19.6093V19.971V20.1269C150.635 20.1269 150.583 20.1269 150.479 20.1269H150.117H149.755H149.599ZM152.423 20.1269C152.423 20.1269 152.423 20.0749 152.423 19.971V19.6093V19.2475V19.0916H152.579H152.94H153.302H153.458C153.458 19.0916 153.458 19.1436 153.458 19.2475V19.6093V19.971V20.1269C153.458 20.1269 153.406 20.1269 153.302 20.1269H152.94H152.579H152.423ZM155.246 20.1269C155.246 20.1269 155.246 20.0749 155.246 19.971V19.6093V19.2475V19.0916H155.402H155.764H156.126H156.282C156.282 19.0916 156.282 19.1436 156.282 19.2475V19.6093V19.971V20.1269C156.282 20.1269 156.23 20.1269 156.126 20.1269H155.764H155.402H155.246ZM146.07 18.7151C146.07 18.7151 146.07 18.6632 146.07 18.5593V18.1975V17.8357V17.6798H146.226H146.587H146.949H147.105C147.105 17.6798 147.105 17.7318 147.105 17.8357V18.1975V18.5593V18.7151C147.105 18.7151 147.053 18.7151 146.949 18.7151H146.587H146.226H146.07ZM150.305 18.7151C150.305 18.7151 150.305 18.6632 150.305 18.5593V18.1975V17.8357V17.6798H150.461H150.823H151.185H151.34C151.34 17.6798 151.34 17.7318 151.34 17.8357V18.1975V18.5593V18.7151C151.34 18.7151 151.288 18.7151 151.185 18.7151H150.823H150.461H150.305ZM151.717 18.7151C151.717 18.7151 151.717 18.6632 151.717 18.5593V18.1975V17.8357V17.6798H151.873H152.235H152.596H152.752C152.752 17.6798 152.752 17.7318 152.752 17.8357V18.1975V18.5593V18.7151C152.752 18.7151 152.7 18.7151 152.596 18.7151H152.235H151.873H151.717ZM155.952 18.7151C155.952 18.7151 155.952 18.6632 155.952 18.5593V18.1975V17.8357V17.6798H156.108H156.47H156.832H156.987C156.987 17.6798 156.987 17.7318 156.987 17.8357V18.1975V18.5593V18.7151C156.987 18.7151 156.936 18.7151 156.832 18.7151H156.47H156.108H155.952ZM146.07 17.3034C146.07 17.3034 146.07 17.2514 146.07 17.1475V16.7857V16.424V16.2681H146.226H146.587H146.949H147.105C147.105 16.2681 147.105 16.32 147.105 16.424V16.7857V17.1475V17.3034C147.105 17.3034 147.053 17.3034 146.949 17.3034H146.587H146.226H146.07ZM151.011 17.3034C151.011 17.3034 151.011 17.2514 151.011 17.1475V16.7857V16.424V16.2681H151.167H151.529H151.89H152.046C152.046 16.2681 152.046 16.32 152.046 16.424V16.7857V17.1475V17.3034C152.046 17.3034 151.994 17.3034 151.89 17.3034H151.529H151.167H151.011ZM155.952 17.3034C155.952 17.3034 155.952 17.2514 155.952 17.1475V16.7857V16.424V16.2681H156.108H156.47H156.832H156.987C156.987 16.2681 156.987 16.32 156.987 16.424V16.7857V17.1475V17.3034C156.987 17.3034 156.936 17.3034 156.832 17.3034H156.47H156.108H155.952ZM146.07 15.8916C146.07 15.8916 146.07 15.8397 146.07 15.7357V15.374V15.0122V14.8563H146.226H146.587H146.949H147.105C147.105 14.8563 147.105 14.9083 147.105 15.0122V15.374V15.7357V15.8916C147.105 15.8916 147.053 15.8916 146.949 15.8916H146.587H146.226H146.07ZM151.011 15.8916C151.011 15.8916 151.011 15.8397 151.011 15.7357V15.374V15.0122V14.8563H151.167H151.529H151.89H152.046C152.046 14.8563 152.046 14.9083 152.046 15.0122V15.374V15.7357V15.8916C152.046 15.8916 151.994 15.8916 151.89 15.8916H151.529H151.167H151.011ZM155.952 15.8916C155.952 15.8916 155.952 15.8397 155.952 15.7357V15.374V15.0122V14.8563H156.108H156.47H156.832H156.987C156.987 14.8563 156.987 14.9083 156.987 15.0122V15.374V15.7357V15.8916C156.987 15.8916 156.936 15.8916 156.832 15.8916H156.47H156.108H155.952ZM146.07 14.4798C146.07 14.4798 146.07 14.4279 146.07 14.324V13.9622V13.6004V13.4446H146.226H146.587H146.949H147.105C147.105 13.4446 147.105 13.4965 147.105 13.6004V13.9622V14.324V14.4798C147.105 14.4798 147.053 14.4798 146.949 14.4798H146.587H146.226H146.07ZM151.011 14.4798C151.011 14.4798 151.011 14.4279 151.011 14.324V13.9622V13.6004V13.4446H151.167H151.529H151.89H152.046C152.046 13.4446 152.046 13.4965 152.046 13.6004V13.9622V14.324V14.4798C152.046 14.4798 151.994 14.4798 151.89 14.4798H151.529H151.167H151.011ZM155.952 14.4798C155.952 14.4798 155.952 14.4279 155.952 14.324V13.9622V13.6004V13.4446H156.108H156.47H156.832H156.987C156.987 13.4446 156.987 13.4965 156.987 13.6004V13.9622V14.324V14.4798C156.987 14.4798 156.936 14.4798 156.832 14.4798H156.47H156.108H155.952ZM146.07 13.0681C146.07 13.0681 146.07 13.0161 146.07 12.9122V12.5504V12.1887V12.0328H146.226H146.587H146.949H147.105C147.105 12.0328 147.105 12.0847 147.105 12.1887V12.5504V12.9122V13.0681C147.105 13.0681 147.053 13.0681 146.949 13.0681H146.587H146.226H146.07ZM151.011 13.0681C151.011 13.0681 151.011 13.0161 151.011 12.9122V12.5504V12.1887V12.0328H151.167H151.529H151.89H152.046C152.046 12.0328 152.046 12.0847 152.046 12.1887V12.5504V12.9122V13.0681C152.046 13.0681 151.994 13.0681 151.89 13.0681H151.529H151.167H151.011ZM155.952 13.0681C155.952 13.0681 155.952 13.0161 155.952 12.9122V12.5504V12.1887V12.0328H156.108H156.47H156.832H156.987C156.987 12.0328 156.987 12.0847 156.987 12.1887V12.5504V12.9122V13.0681C156.987 13.0681 156.936 13.0681 156.832 13.0681H156.47H156.108H155.952ZM159.705 22.9504C159.705 22.9504 159.705 22.8985 159.705 22.7946V22.4328V22.071V21.9151H159.861H160.222H160.584H160.74C160.74 21.9151 160.74 21.9671 160.74 22.071V22.4328V22.7946V22.9504C160.74 22.9504 160.688 22.9504 160.584 22.9504H160.222H159.861H159.705ZM161.117 22.9504C161.117 22.9504 161.117 22.8985 161.117 22.7946V22.4328V22.071V21.9151H161.272H161.634H161.996H162.152C162.152 21.9151 162.152 21.9671 162.152 22.071V22.4328V22.7946V22.9504C162.152 22.9504 162.1 22.9504 161.996 22.9504H161.634H161.272H161.117ZM163.94 22.9504C163.94 22.9504 163.94 22.8985 163.94 22.7946V22.4328V22.071V21.9151H164.096H164.458H164.819H164.975C164.975 21.9151 164.975 21.9671 164.975 22.071V22.4328V22.7946V22.9504C164.975 22.9504 164.923 22.9504 164.819 22.9504H164.458H164.096H163.94ZM158.293 21.5387C158.293 21.5387 158.293 21.4867 158.293 21.3828V21.021V20.6593V20.5034H158.449H158.811H159.172H159.328C159.328 20.5034 159.328 20.5553 159.328 20.6593V21.021V21.3828V21.5387C159.328 21.5387 159.276 21.5387 159.172 21.5387H158.811H158.449H158.293ZM162.528 21.5387C162.528 21.5387 162.528 21.4867 162.528 21.3828V21.021V20.6593V20.5034H162.684H163.046H163.408H163.564C163.564 20.5034 163.564 20.5553 163.564 20.6593V21.021V21.3828V21.5387C163.564 21.5387 163.512 21.5387 163.408 21.5387H163.046H162.684H162.528ZM163.94 21.5387C163.94 21.5387 163.94 21.4867 163.94 21.3828V21.021V20.6593V20.5034H164.096H164.458H164.819H164.975C164.975 20.5034 164.975 20.5553 164.975 20.6593V21.021V21.3828V21.5387C164.975 21.5387 164.923 21.5387 164.819 21.5387H164.458H164.096H163.94ZM158.293 20.1269C158.293 20.1269 158.293 20.0749 158.293 19.971V19.6093V19.2475V19.0916H158.449H158.811H159.172H159.328C159.328 19.0916 159.328 19.1436 159.328 19.2475V19.6093V19.971V20.1269C159.328 20.1269 159.276 20.1269 159.172 20.1269H158.811H158.449H158.293ZM163.94 20.1269C163.94 20.1269 163.94 20.0749 163.94 19.971V19.6093V19.2475V19.0916H164.096H164.458H164.819H164.975C164.975 19.0916 164.975 19.1436 164.975 19.2475V19.6093V19.971V20.1269C164.975 20.1269 164.923 20.1269 164.819 20.1269H164.458H164.096H163.94ZM159.705 18.7151C159.705 18.7151 159.705 18.6632 159.705 18.5593V18.1975V17.8357V17.6798H159.861H160.222H160.584H160.74C160.74 17.6798 160.74 17.7318 160.74 17.8357V18.1975V18.5593V18.7151C160.74 18.7151 160.688 18.7151 160.584 18.7151H160.222H159.861H159.705ZM161.117 18.7151C161.117 18.7151 161.117 18.6632 161.117 18.5593V18.1975V17.8357V17.6798H161.272H161.634H161.996H162.152C162.152 17.6798 162.152 17.7318 162.152 17.8357V18.1975V18.5593V18.7151C162.152 18.7151 162.1 18.7151 161.996 18.7151H161.634H161.272H161.117ZM162.528 18.7151C162.528 18.7151 162.528 18.6632 162.528 18.5593V18.1975V17.8357V17.6798H162.684H163.046H163.408H163.564C163.564 17.6798 163.564 17.7318 163.564 17.8357V18.1975V18.5593V18.7151C163.564 18.7151 163.512 18.7151 163.408 18.7151H163.046H162.684H162.528ZM163.94 18.7151C163.94 18.7151 163.94 18.6632 163.94 18.5593V18.1975V17.8357V17.6798H164.096H164.458H164.819H164.975C164.975 17.6798 164.975 17.7318 164.975 17.8357V18.1975V18.5593V18.7151C164.975 18.7151 164.923 18.7151 164.819 18.7151H164.458H164.096H163.94ZM163.94 17.3034C163.94 17.3034 163.94 17.2514 163.94 17.1475V16.7857V16.424V16.2681H164.096H164.458H164.819H164.975C164.975 16.2681 164.975 16.32 164.975 16.424V16.7857V17.1475V17.3034C164.975 17.3034 164.923 17.3034 164.819 17.3034H164.458H164.096H163.94ZM163.94 15.8916C163.94 15.8916 163.94 15.8397 163.94 15.7357V15.374V15.0122V14.8563H164.096H164.458H164.819H164.975C164.975 14.8563 164.975 14.9083 164.975 15.0122V15.374V15.7357V15.8916C164.975 15.8916 164.923 15.8916 164.819 15.8916H164.458H164.096H163.94ZM158.293 14.4798C158.293 14.4798 158.293 14.4279 158.293 14.324V13.9622V13.6004V13.4446H158.449H158.811H159.172H159.328C159.328 13.4446 159.328 13.4965 159.328 13.6004V13.9622V14.324V14.4798C159.328 14.4798 159.276 14.4798 159.172 14.4798H158.811H158.449H158.293ZM163.94 14.4798C163.94 14.4798 163.94 14.4279 163.94 14.324V13.9622V13.6004V13.4446H164.096H164.458H164.819H164.975C164.975 13.4446 164.975 13.4965 164.975 13.6004V13.9622V14.324V14.4798C164.975 14.4798 164.923 14.4798 164.819 14.4798H164.458H164.096H163.94ZM159.705 13.0681C159.705 13.0681 159.705 13.0161 159.705 12.9122V12.5504V12.1887V12.0328H159.861H160.222H160.584H160.74C160.74 12.0328 160.74 12.0847 160.74 12.1887V12.5504V12.9122V13.0681C160.74 13.0681 160.688 13.0681 160.584 13.0681H160.222H159.861H159.705ZM161.117 13.0681C161.117 13.0681 161.117 13.0161 161.117 12.9122V12.5504V12.1887V12.0328H161.272H161.634H161.996H162.152C162.152 12.0328 162.152 12.0847 162.152 12.1887V12.5504V12.9122V13.0681C162.152 13.0681 162.1 13.0681 161.996 13.0681H161.634H161.272H161.117ZM162.528 13.0681C162.528 13.0681 162.528 13.0161 162.528 12.9122V12.5504V12.1887V12.0328H162.684H163.046H163.408H163.564C163.564 12.0328 163.564 12.0847 163.564 12.1887V12.5504V12.9122V13.0681C163.564 13.0681 163.512 13.0681 163.408 13.0681H163.046H162.684H162.528ZM167.706 22.9504C167.706 22.9504 167.706 22.8985 167.706 22.7946V22.4328V22.071V21.9151H167.862H168.224H168.586H168.742C168.742 21.9151 168.742 21.9671 168.742 22.071V22.4328V22.7946V22.9504C168.742 22.9504 168.69 22.9504 168.586 22.9504H168.224H167.862H167.706ZM167.706 21.5387C167.706 21.5387 167.706 21.4867 167.706 21.3828V21.021V20.6593V20.5034H167.862H168.224H168.586H168.742C168.742 20.5034 168.742 20.5553 168.742 20.6593V21.021V21.3828V21.5387C168.742 21.5387 168.69 21.5387 168.586 21.5387H168.224H167.862H167.706ZM167.706 20.1269C167.706 20.1269 167.706 20.0749 167.706 19.971V19.6093V19.2475V19.0916H167.862H168.224H168.586H168.742C168.742 19.0916 168.742 19.1436 168.742 19.2475V19.6093V19.971V20.1269C168.742 20.1269 168.69 20.1269 168.586 20.1269H168.224H167.862H167.706ZM167.706 18.7151C167.706 18.7151 167.706 18.6632 167.706 18.5593V18.1975V17.8357V17.6798H167.862H168.224H168.586H168.742C168.742 17.6798 168.742 17.7318 168.742 17.8357V18.1975V18.5593V18.7151C168.742 18.7151 168.69 18.7151 168.586 18.7151H168.224H167.862H167.706ZM167.706 17.3034C167.706 17.3034 167.706 17.2514 167.706 17.1475V16.7857V16.424V16.2681H167.862H168.224H168.586H168.742C168.742 16.2681 168.742 16.32 168.742 16.424V16.7857V17.1475V17.3034C168.742 17.3034 168.69 17.3034 168.586 17.3034H168.224H167.862H167.706ZM167.706 15.8916C167.706 15.8916 167.706 15.8397 167.706 15.7357V15.374V15.0122V14.8563H167.862H168.224H168.586H168.742C168.742 14.8563 168.742 14.9083 168.742 15.0122V15.374V15.7357V15.8916C168.742 15.8916 168.69 15.8916 168.586 15.8916H168.224H167.862H167.706ZM171.942 15.8916C171.942 15.8916 171.942 15.8397 171.942 15.7357V15.374V15.0122V14.8563H172.098H172.459H172.821H172.977C172.977 14.8563 172.977 14.9083 172.977 15.0122V15.374V15.7357V15.8916C172.977 15.8916 172.925 15.8916 172.821 15.8916H172.459H172.098H171.942ZM167.706 14.4798C167.706 14.4798 167.706 14.4279 167.706 14.324V13.9622V13.6004V13.4446H167.862H168.224H168.586H168.742C168.742 13.4446 168.742 13.4965 168.742 13.6004V13.9622V14.324V14.4798C168.742 14.4798 168.69 14.4798 168.586 14.4798H168.224H167.862H167.706ZM171.942 14.4798C171.942 14.4798 171.942 14.4279 171.942 14.324V13.9622V13.6004V13.4446H172.098H172.459H172.821H172.977C172.977 13.4446 172.977 13.4965 172.977 13.6004V13.9622V14.324V14.4798C172.977 14.4798 172.925 14.4798 172.821 14.4798H172.459H172.098H171.942ZM169.118 13.0681C169.118 13.0681 169.118 13.0161 169.118 12.9122V12.5504V12.1887V12.0328H169.274H169.636H169.998H170.153C170.153 12.0328 170.153 12.0847 170.153 12.1887V12.5504V12.9122V13.0681C170.153 13.0681 170.101 13.0681 169.998 13.0681H169.636H169.274H169.118ZM170.53 13.0681C170.53 13.0681 170.53 13.0161 170.53 12.9122V12.5504V12.1887V12.0328H170.686H171.048H171.409H171.565C171.565 12.0328 171.565 12.0847 171.565 12.1887V12.5504V12.9122V13.0681C171.565 13.0681 171.513 13.0681 171.409 13.0681H171.048H170.686H170.53ZM174.984 22.9504C174.984 22.9504 174.984 22.8985 174.984 22.7946V22.4328V22.071V21.9151H175.14H175.502H175.864H176.019C176.019 21.9151 176.019 21.9671 176.019 22.071V22.4328V22.7946V22.9504C176.019 22.9504 175.968 22.9504 175.864 22.9504H175.502H175.14H174.984ZM180.631 22.9504C180.631 22.9504 180.631 22.8985 180.631 22.7946V22.4328V22.071V21.9151H180.787H181.149H181.511H181.667C181.667 21.9151 181.667 21.9671 181.667 22.071V22.4328V22.7946V22.9504C181.667 22.9504 181.615 22.9504 181.511 22.9504H181.149H180.787H180.631ZM186.278 22.9504C186.278 22.9504 186.278 22.8985 186.278 22.7946V22.4328V22.071V21.9151H186.434H186.796H187.158H187.314C187.314 21.9151 187.314 21.9671 187.314 22.071V22.4328V22.7946V22.9504C187.314 22.9504 187.262 22.9504 187.158 22.9504H186.796H186.434H186.278ZM174.984 21.5387C174.984 21.5387 174.984 21.4867 174.984 21.3828V21.021V20.6593V20.5034H175.14H175.502H175.864H176.019C176.019 20.5034 176.019 20.5553 176.019 20.6593V21.021V21.3828V21.5387C176.019 21.5387 175.968 21.5387 175.864 21.5387H175.502H175.14H174.984ZM180.631 21.5387C180.631 21.5387 180.631 21.4867 180.631 21.3828V21.021V20.6593V20.5034H180.787H181.149H181.511H181.667C181.667 20.5034 181.667 20.5553 181.667 20.6593V21.021V21.3828V21.5387C181.667 21.5387 181.615 21.5387 181.511 21.5387H181.149H180.787H180.631ZM186.278 21.5387C186.278 21.5387 186.278 21.4867 186.278 21.3828V21.021V20.6593V20.5034H186.434H186.796H187.158H187.314C187.314 20.5034 187.314 20.5553 187.314 20.6593V21.021V21.3828V21.5387C187.314 21.5387 187.262 21.5387 187.158 21.5387H186.796H186.434H186.278ZM174.984 20.1269C174.984 20.1269 174.984 20.0749 174.984 19.971V19.6093V19.2475V19.0916H175.14H175.502H175.864H176.019C176.019 19.0916 176.019 19.1436 176.019 19.2475V19.6093V19.971V20.1269C176.019 20.1269 175.968 20.1269 175.864 20.1269H175.502H175.14H174.984ZM180.631 20.1269C180.631 20.1269 180.631 20.0749 180.631 19.971V19.6093V19.2475V19.0916H180.787H181.149H181.511H181.667C181.667 19.0916 181.667 19.1436 181.667 19.2475V19.6093V19.971V20.1269C181.667 20.1269 181.615 20.1269 181.511 20.1269H181.149H180.787H180.631ZM186.278 20.1269C186.278 20.1269 186.278 20.0749 186.278 19.971V19.6093V19.2475V19.0916H186.434H186.796H187.158H187.314C187.314 19.0916 187.314 19.1436 187.314 19.2475V19.6093V19.971V20.1269C187.314 20.1269 187.262 20.1269 187.158 20.1269H186.796H186.434H186.278ZM174.984 18.7151C174.984 18.7151 174.984 18.6632 174.984 18.5593V18.1975V17.8357V17.6798H175.14H175.502H175.864H176.019C176.019 17.6798 176.019 17.7318 176.019 17.8357V18.1975V18.5593V18.7151C176.019 18.7151 175.968 18.7151 175.864 18.7151H175.502H175.14H174.984ZM180.631 18.7151C180.631 18.7151 180.631 18.6632 180.631 18.5593V18.1975V17.8357V17.6798H180.787H181.149H181.511H181.667C181.667 17.6798 181.667 17.7318 181.667 17.8357V18.1975V18.5593V18.7151C181.667 18.7151 181.615 18.7151 181.511 18.7151H181.149H180.787H180.631ZM186.278 18.7151C186.278 18.7151 186.278 18.6632 186.278 18.5593V18.1975V17.8357V17.6798H186.434H186.796H187.158H187.314C187.314 17.6798 187.314 17.7318 187.314 17.8357V18.1975V18.5593V18.7151C187.314 18.7151 187.262 18.7151 187.158 18.7151H186.796H186.434H186.278ZM174.984 17.3034C174.984 17.3034 174.984 17.2514 174.984 17.1475V16.7857V16.424V16.2681H175.14H175.502H175.864H176.019C176.019 16.2681 176.019 16.32 176.019 16.424V16.7857V17.1475V17.3034C176.019 17.3034 175.968 17.3034 175.864 17.3034H175.502H175.14H174.984ZM180.631 17.3034C180.631 17.3034 180.631 17.2514 180.631 17.1475V16.7857V16.424V16.2681H180.787H181.149H181.511H181.667C181.667 16.2681 181.667 16.32 181.667 16.424V16.7857V17.1475V17.3034C181.667 17.3034 181.615 17.3034 181.511 17.3034H181.149H180.787H180.631ZM186.278 17.3034C186.278 17.3034 186.278 17.2514 186.278 17.1475V16.7857V16.424V16.2681H186.434H186.796H187.158H187.314C187.314 16.2681 187.314 16.32 187.314 16.424V16.7857V17.1475V17.3034C187.314 17.3034 187.262 17.3034 187.158 17.3034H186.796H186.434H186.278ZM174.984 15.8916C174.984 15.8916 174.984 15.8397 174.984 15.7357V15.374V15.0122V14.8563H175.14H175.502H175.864H176.019C176.019 14.8563 176.019 14.9083 176.019 15.0122V15.374V15.7357V15.8916C176.019 15.8916 175.968 15.8916 175.864 15.8916H175.502H175.14H174.984ZM180.631 15.8916C180.631 15.8916 180.631 15.8397 180.631 15.7357V15.374V15.0122V14.8563H180.787H181.149H181.511H181.667C181.667 14.8563 181.667 14.9083 181.667 15.0122V15.374V15.7357V15.8916C181.667 15.8916 181.615 15.8916 181.511 15.8916H181.149H180.787H180.631ZM186.278 15.8916C186.278 15.8916 186.278 15.8397 186.278 15.7357V15.374V15.0122V14.8563H186.434H186.796H187.158H187.314C187.314 14.8563 187.314 14.9083 187.314 15.0122V15.374V15.7357V15.8916C187.314 15.8916 187.262 15.8916 187.158 15.8916H186.796H186.434H186.278ZM174.984 14.4798C174.984 14.4798 174.984 14.4279 174.984 14.324V13.9622V13.6004V13.4446H175.14H175.502H175.864H176.019C176.019 13.4446 176.019 13.4965 176.019 13.6004V13.9622V14.324V14.4798C176.019 14.4798 175.968 14.4798 175.864 14.4798H175.502H175.14H174.984ZM176.396 14.4798C176.396 14.4798 176.396 14.4279 176.396 14.324V13.9622V13.6004V13.4446H176.552H176.914H177.275H177.431C177.431 13.4446 177.431 13.4965 177.431 13.6004V13.9622V14.324V14.4798C177.431 14.4798 177.379 14.4798 177.275 14.4798H176.914H176.552H176.396ZM180.631 14.4798C180.631 14.4798 180.631 14.4279 180.631 14.324V13.9622V13.6004V13.4446H180.787H181.149H181.511H181.667C181.667 13.4446 181.667 13.4965 181.667 13.6004V13.9622V14.324V14.4798C181.667 14.4798 181.615 14.4798 181.511 14.4798H181.149H180.787H180.631ZM182.043 14.4798C182.043 14.4798 182.043 14.4279 182.043 14.324V13.9622V13.6004V13.4446H182.199H182.561H182.922H183.078C183.078 13.4446 183.078 13.4965 183.078 13.6004V13.9622V14.324V14.4798C183.078 14.4798 183.026 14.4798 182.922 14.4798H182.561H182.199H182.043ZM186.278 14.4798C186.278 14.4798 186.278 14.4279 186.278 14.324V13.9622V13.6004V13.4446H186.434H186.796H187.158H187.314C187.314 13.4446 187.314 13.4965 187.314 13.6004V13.9622V14.324V14.4798C187.314 14.4798 187.262 14.4798 187.158 14.4798H186.796H186.434H186.278ZM174.984 13.0681C174.984 13.0681 174.984 13.0161 174.984 12.9122V12.5504V12.1887V12.0328H175.14H175.502H175.864H176.019C176.019 12.0328 176.019 12.0847 176.019 12.1887V12.5504V12.9122V13.0681C176.019 13.0681 175.968 13.0681 175.864 13.0681H175.502H175.14H174.984ZM177.808 13.0681C177.808 13.0681 177.808 13.0161 177.808 12.9122V12.5504V12.1887V12.0328H177.964H178.325H178.687H178.843C178.843 12.0328 178.843 12.0847 178.843 12.1887V12.5504V12.9122V13.0681C178.843 13.0681 178.791 13.0681 178.687 13.0681H178.325H177.964H177.808ZM179.219 13.0681C179.219 13.0681 179.219 13.0161 179.219 12.9122V12.5504V12.1887V12.0328H179.375H179.737H180.099H180.255C180.255 12.0328 180.255 12.0847 180.255 12.1887V12.5504V12.9122V13.0681C180.255 13.0681 180.203 13.0681 180.099 13.0681H179.737H179.375H179.219ZM183.455 13.0681C183.455 13.0681 183.455 13.0161 183.455 12.9122V12.5504V12.1887V12.0328H183.611H183.972H184.334H184.49C184.49 12.0328 184.49 12.0847 184.49 12.1887V12.5504V12.9122V13.0681C184.49 13.0681 184.438 13.0681 184.334 13.0681H183.972H183.611H183.455ZM184.867 13.0681C184.867 13.0681 184.867 13.0161 184.867 12.9122V12.5504V12.1887V12.0328H185.022H185.384H185.746H185.902C185.902 12.0328 185.902 12.0847 185.902 12.1887V12.5504V12.9122V13.0681C185.902 13.0681 185.85 13.0681 185.746 13.0681H185.384H185.022H184.867ZM193.805 22.9504C193.805 22.9504 193.805 22.8985 193.805 22.7946V22.4328V22.071V21.9151H193.961H194.323H194.685H194.841C194.841 21.9151 194.841 21.9671 194.841 22.071V22.4328V22.7946V22.9504C194.841 22.9504 194.789 22.9504 194.685 22.9504H194.323H193.961H193.805ZM195.217 22.9504C195.217 22.9504 195.217 22.8985 195.217 22.7946V22.4328V22.071V21.9151H195.373H195.735H196.097H196.252C196.252 21.9151 196.252 21.9671 196.252 22.071V22.4328V22.7946V22.9504C196.252 22.9504 196.201 22.9504 196.097 22.9504H195.735H195.373H195.217ZM196.629 22.9504C196.629 22.9504 196.629 22.8985 196.629 22.7946V22.4328V22.071V21.9151H196.785H197.147H197.508H197.664C197.664 21.9151 197.664 21.9671 197.664 22.071V22.4328V22.7946V22.9504C197.664 22.9504 197.612 22.9504 197.508 22.9504H197.147H196.785H196.629ZM198.041 22.9504C198.041 22.9504 198.041 22.8985 198.041 22.7946V22.4328V22.071V21.9151H198.197H198.558H198.92H199.076C199.076 21.9151 199.076 21.9671 199.076 22.071V22.4328V22.7946V22.9504C199.076 22.9504 199.024 22.9504 198.92 22.9504H198.558H198.197H198.041ZM193.805 21.5387C193.805 21.5387 193.805 21.4867 193.805 21.3828V21.021V20.6593V20.5034H193.961H194.323H194.685H194.841C194.841 20.5034 194.841 20.5553 194.841 20.6593V21.021V21.3828V21.5387C194.841 21.5387 194.789 21.5387 194.685 21.5387H194.323H193.961H193.805ZM199.452 21.5387C199.452 21.5387 199.452 21.4867 199.452 21.3828V21.021V20.6593V20.5034H199.608H199.97H200.332H200.488C200.488 20.5034 200.488 20.5553 200.488 20.6593V21.021V21.3828V21.5387C200.488 21.5387 200.436 21.5387 200.332 21.5387H199.97H199.608H199.452ZM193.805 20.1269C193.805 20.1269 193.805 20.0749 193.805 19.971V19.6093V19.2475V19.0916H193.961H194.323H194.685H194.841C194.841 19.0916 194.841 19.1436 194.841 19.2475V19.6093V19.971V20.1269C194.841 20.1269 194.789 20.1269 194.685 20.1269H194.323H193.961H193.805ZM199.452 20.1269C199.452 20.1269 199.452 20.0749 199.452 19.971V19.6093V19.2475V19.0916H199.608H199.97H200.332H200.488C200.488 19.0916 200.488 19.1436 200.488 19.2475V19.6093V19.971V20.1269C200.488 20.1269 200.436 20.1269 200.332 20.1269H199.97H199.608H199.452ZM193.805 18.7151C193.805 18.7151 193.805 18.6632 193.805 18.5593V18.1975V17.8357V17.6798H193.961H194.323H194.685H194.841C194.841 17.6798 194.841 17.7318 194.841 17.8357V18.1975V18.5593V18.7151C194.841 18.7151 194.789 18.7151 194.685 18.7151H194.323H193.961H193.805ZM199.452 18.7151C199.452 18.7151 199.452 18.6632 199.452 18.5593V18.1975V17.8357V17.6798H199.608H199.97H200.332H200.488C200.488 17.6798 200.488 17.7318 200.488 17.8357V18.1975V18.5593V18.7151C200.488 18.7151 200.436 18.7151 200.332 18.7151H199.97H199.608H199.452ZM193.805 17.3034C193.805 17.3034 193.805 17.2514 193.805 17.1475V16.7857V16.424V16.2681H193.961H194.323H194.685H194.841C194.841 16.2681 194.841 16.32 194.841 16.424V16.7857V17.1475V17.3034C194.841 17.3034 194.789 17.3034 194.685 17.3034H194.323H193.961H193.805ZM199.452 17.3034C199.452 17.3034 199.452 17.2514 199.452 17.1475V16.7857V16.424V16.2681H199.608H199.97H200.332H200.488C200.488 16.2681 200.488 16.32 200.488 16.424V16.7857V17.1475V17.3034C200.488 17.3034 200.436 17.3034 200.332 17.3034H199.97H199.608H199.452ZM193.805 15.8916C193.805 15.8916 193.805 15.8397 193.805 15.7357V15.374V15.0122V14.8563H193.961H194.323H194.685H194.841C194.841 14.8563 194.841 14.9083 194.841 15.0122V15.374V15.7357V15.8916C194.841 15.8916 194.789 15.8916 194.685 15.8916H194.323H193.961H193.805ZM199.452 15.8916C199.452 15.8916 199.452 15.8397 199.452 15.7357V15.374V15.0122V14.8563H199.608H199.97H200.332H200.488C200.488 14.8563 200.488 14.9083 200.488 15.0122V15.374V15.7357V15.8916C200.488 15.8916 200.436 15.8916 200.332 15.8916H199.97H199.608H199.452ZM193.805 14.4798C193.805 14.4798 193.805 14.4279 193.805 14.324V13.9622V13.6004V13.4446H193.961H194.323H194.685H194.841C194.841 13.4446 194.841 13.4965 194.841 13.6004V13.9622V14.324V14.4798C194.841 14.4798 194.789 14.4798 194.685 14.4798H194.323H193.961H193.805ZM199.452 14.4798C199.452 14.4798 199.452 14.4279 199.452 14.324V13.9622V13.6004V13.4446H199.608H199.97H200.332H200.488C200.488 13.4446 200.488 13.4965 200.488 13.6004V13.9622V14.324V14.4798C200.488 14.4798 200.436 14.4798 200.332 14.4798H199.97H199.608H199.452ZM193.805 13.0681C193.805 13.0681 193.805 13.0161 193.805 12.9122V12.5504V12.1887V12.0328H193.961H194.323H194.685H194.841C194.841 12.0328 194.841 12.0847 194.841 12.1887V12.5504V12.9122V13.0681C194.841 13.0681 194.789 13.0681 194.685 13.0681H194.323H193.961H193.805ZM199.452 13.0681C199.452 13.0681 199.452 13.0161 199.452 12.9122V12.5504V12.1887V12.0328H199.608H199.97H200.332H200.488C200.488 12.0328 200.488 12.0847 200.488 12.1887V12.5504V12.9122V13.0681C200.488 13.0681 200.436 13.0681 200.332 13.0681H199.97H199.608H199.452ZM193.805 11.6563C193.805 11.6563 193.805 11.6044 193.805 11.5004V11.1387V10.7769V10.621H193.961H194.323H194.685H194.841C194.841 10.621 194.841 10.673 194.841 10.7769V11.1387V11.5004V11.6563C194.841 11.6563 194.789 11.6563 194.685 11.6563H194.323H193.961H193.805ZM199.452 11.6563C199.452 11.6563 199.452 11.6044 199.452 11.5004V11.1387V10.7769V10.621H199.608H199.97H200.332H200.488C200.488 10.621 200.488 10.673 200.488 10.7769V11.1387V11.5004V11.6563C200.488 11.6563 200.436 11.6563 200.332 11.6563H199.97H199.608H199.452ZM193.805 10.2446C193.805 10.2446 193.805 10.1926 193.805 10.0887V9.72691V9.36514V9.20926H193.961H194.323H194.685H194.841C194.841 9.20926 194.841 9.26122 194.841 9.36514V9.72691V10.0887V10.2446C194.841 10.2446 194.789 10.2446 194.685 10.2446H194.323H193.961H193.805ZM199.452 10.2446C199.452 10.2446 199.452 10.1926 199.452 10.0887V9.72691V9.36514V9.20926H199.608H199.97H200.332H200.488C200.488 9.20926 200.488 9.26122 200.488 9.36514V9.72691V10.0887V10.2446C200.488 10.2446 200.436 10.2446 200.332 10.2446H199.97H199.608H199.452ZM193.805 8.83279C193.805 8.83279 193.805 8.78083 193.805 8.67691V8.31514V7.95338V7.79749H193.961H194.323H194.685H194.841C194.841 7.79749 194.841 7.84946 194.841 7.95338V8.31514V8.67691V8.83279C194.841 8.83279 194.789 8.83279 194.685 8.83279H194.323H193.961H193.805ZM195.217 8.83279C195.217 8.83279 195.217 8.78083 195.217 8.67691V8.31514V7.95338V7.79749H195.373H195.735H196.097H196.252C196.252 7.79749 196.252 7.84946 196.252 7.95338V8.31514V8.67691V8.83279C196.252 8.83279 196.201 8.83279 196.097 8.83279H195.735H195.373H195.217ZM196.629 8.83279C196.629 8.83279 196.629 8.78083 196.629 8.67691V8.31514V7.95338V7.79749H196.785H197.147H197.508H197.664C197.664 7.79749 197.664 7.84946 197.664 7.95338V8.31514V8.67691V8.83279C197.664 8.83279 197.612 8.83279 197.508 8.83279H197.147H196.785H196.629ZM198.041 8.83279C198.041 8.83279 198.041 8.78083 198.041 8.67691V8.31514V7.95338V7.79749H198.197H198.558H198.92H199.076C199.076 7.79749 199.076 7.84946 199.076 7.95338V8.31514V8.67691V8.83279C199.076 8.83279 199.024 8.83279 198.92 8.83279H198.558H198.197H198.041ZM204.628 22.9504C204.628 22.9504 204.628 22.8985 204.628 22.7946V22.4328V22.071V21.9151H204.784H205.145H205.507H205.663C205.663 21.9151 205.663 21.9671 205.663 22.071V22.4328V22.7946V22.9504C205.663 22.9504 205.611 22.9504 205.507 22.9504H205.145H204.784H204.628ZM206.04 22.9504C206.04 22.9504 206.04 22.8985 206.04 22.7946V22.4328V22.071V21.9151H206.195H206.557H206.919H207.075C207.075 21.9151 207.075 21.9671 207.075 22.071V22.4328V22.7946V22.9504C207.075 22.9504 207.023 22.9504 206.919 22.9504H206.557H206.195H206.04ZM207.451 22.9504C207.451 22.9504 207.451 22.8985 207.451 22.7946V22.4328V22.071V21.9151H207.607H207.969H208.331H208.487C208.487 21.9151 208.487 21.9671 208.487 22.071V22.4328V22.7946V22.9504C208.487 22.9504 208.435 22.9504 208.331 22.9504H207.969H207.607H207.451ZM203.216 21.5387C203.216 21.5387 203.216 21.4867 203.216 21.3828V21.021V20.6593V20.5034H203.372H203.734H204.095H204.251C204.251 20.5034 204.251 20.5553 204.251 20.6593V21.021V21.3828V21.5387C204.251 21.5387 204.199 21.5387 204.095 21.5387H203.734H203.372H203.216ZM208.863 21.5387C208.863 21.5387 208.863 21.4867 208.863 21.3828V21.021V20.6593V20.5034H209.019H209.381H209.743H209.898C209.898 20.5034 209.898 20.5553 209.898 20.6593V21.021V21.3828V21.5387C209.898 21.5387 209.846 21.5387 209.743 21.5387H209.381H209.019H208.863ZM203.216 20.1269C203.216 20.1269 203.216 20.0749 203.216 19.971V19.6093V19.2475V19.0916H203.372H203.734H204.095H204.251C204.251 19.0916 204.251 19.1436 204.251 19.2475V19.6093V19.971V20.1269C204.251 20.1269 204.199 20.1269 204.095 20.1269H203.734H203.372H203.216ZM208.863 20.1269C208.863 20.1269 208.863 20.0749 208.863 19.971V19.6093V19.2475V19.0916H209.019H209.381H209.743H209.898C209.898 19.0916 209.898 19.1436 209.898 19.2475V19.6093V19.971V20.1269C209.898 20.1269 209.846 20.1269 209.743 20.1269H209.381H209.019H208.863ZM203.216 18.7151C203.216 18.7151 203.216 18.6632 203.216 18.5593V18.1975V17.8357V17.6798H203.372H203.734H204.095H204.251C204.251 17.6798 204.251 17.7318 204.251 17.8357V18.1975V18.5593V18.7151C204.251 18.7151 204.199 18.7151 204.095 18.7151H203.734H203.372H203.216ZM208.863 18.7151C208.863 18.7151 208.863 18.6632 208.863 18.5593V18.1975V17.8357V17.6798H209.019H209.381H209.743H209.898C209.898 17.6798 209.898 17.7318 209.898 17.8357V18.1975V18.5593V18.7151C209.898 18.7151 209.846 18.7151 209.743 18.7151H209.381H209.019H208.863ZM203.216 17.3034C203.216 17.3034 203.216 17.2514 203.216 17.1475V16.7857V16.424V16.2681H203.372H203.734H204.095H204.251C204.251 16.2681 204.251 16.32 204.251 16.424V16.7857V17.1475V17.3034C204.251 17.3034 204.199 17.3034 204.095 17.3034H203.734H203.372H203.216ZM208.863 17.3034C208.863 17.3034 208.863 17.2514 208.863 17.1475V16.7857V16.424V16.2681H209.019H209.381H209.743H209.898C209.898 16.2681 209.898 16.32 209.898 16.424V16.7857V17.1475V17.3034C209.898 17.3034 209.846 17.3034 209.743 17.3034H209.381H209.019H208.863ZM203.216 15.8916C203.216 15.8916 203.216 15.8397 203.216 15.7357V15.374V15.0122V14.8563H203.372H203.734H204.095H204.251C204.251 14.8563 204.251 14.9083 204.251 15.0122V15.374V15.7357V15.8916C204.251 15.8916 204.199 15.8916 204.095 15.8916H203.734H203.372H203.216ZM208.863 15.8916C208.863 15.8916 208.863 15.8397 208.863 15.7357V15.374V15.0122V14.8563H209.019H209.381H209.743H209.898C209.898 14.8563 209.898 14.9083 209.898 15.0122V15.374V15.7357V15.8916C209.898 15.8916 209.846 15.8916 209.743 15.8916H209.381H209.019H208.863ZM203.216 14.4798C203.216 14.4798 203.216 14.4279 203.216 14.324V13.9622V13.6004V13.4446H203.372H203.734H204.095H204.251C204.251 13.4446 204.251 13.4965 204.251 13.6004V13.9622V14.324V14.4798C204.251 14.4798 204.199 14.4798 204.095 14.4798H203.734H203.372H203.216ZM208.863 14.4798C208.863 14.4798 208.863 14.4279 208.863 14.324V13.9622V13.6004V13.4446H209.019H209.381H209.743H209.898C209.898 13.4446 209.898 13.4965 209.898 13.6004V13.9622V14.324V14.4798C209.898 14.4798 209.846 14.4798 209.743 14.4798H209.381H209.019H208.863ZM204.628 13.0681C204.628 13.0681 204.628 13.0161 204.628 12.9122V12.5504V12.1887V12.0328H204.784H205.145H205.507H205.663C205.663 12.0328 205.663 12.0847 205.663 12.1887V12.5504V12.9122V13.0681C205.663 13.0681 205.611 13.0681 205.507 13.0681H205.145H204.784H204.628ZM206.04 13.0681C206.04 13.0681 206.04 13.0161 206.04 12.9122V12.5504V12.1887V12.0328H206.195H206.557H206.919H207.075C207.075 12.0328 207.075 12.0847 207.075 12.1887V12.5504V12.9122V13.0681C207.075 13.0681 207.023 13.0681 206.919 13.0681H206.557H206.195H206.04ZM207.451 13.0681C207.451 13.0681 207.451 13.0161 207.451 12.9122V12.5504V12.1887V12.0328H207.607H207.969H208.331H208.487C208.487 12.0328 208.487 12.0847 208.487 12.1887V12.5504V12.9122V13.0681C208.487 13.0681 208.435 13.0681 208.331 13.0681H207.969H207.607H207.451ZM214.038 22.9504C214.038 22.9504 214.038 22.8985 214.038 22.7946V22.4328V22.071V21.9151H214.194H214.556H214.918H215.074C215.074 21.9151 215.074 21.9671 215.074 22.071V22.4328V22.7946V22.9504C215.074 22.9504 215.022 22.9504 214.918 22.9504H214.556H214.194H214.038ZM215.45 22.9504C215.45 22.9504 215.45 22.8985 215.45 22.7946V22.4328V22.071V21.9151H215.606H215.968H216.33H216.485C216.485 21.9151 216.485 21.9671 216.485 22.071V22.4328V22.7946V22.9504C216.485 22.9504 216.434 22.9504 216.33 22.9504H215.968H215.606H215.45ZM216.862 22.9504C216.862 22.9504 216.862 22.8985 216.862 22.7946V22.4328V22.071V21.9151H217.018H217.38H217.741H217.897C217.897 21.9151 217.897 21.9671 217.897 22.071V22.4328V22.7946V22.9504C217.897 22.9504 217.845 22.9504 217.741 22.9504H217.38H217.018H216.862ZM212.627 21.5387C212.627 21.5387 212.627 21.4867 212.627 21.3828V21.021V20.6593V20.5034H212.783H213.144H213.506H213.662C213.662 20.5034 213.662 20.5553 213.662 20.6593V21.021V21.3828V21.5387C213.662 21.5387 213.61 21.5387 213.506 21.5387H213.144H212.783H212.627ZM218.274 21.5387C218.274 21.5387 218.274 21.4867 218.274 21.3828V21.021V20.6593V20.5034H218.43H218.791H219.153H219.309C219.309 20.5034 219.309 20.5553 219.309 20.6593V21.021V21.3828V21.5387C219.309 21.5387 219.257 21.5387 219.153 21.5387H218.791H218.43H218.274ZM212.627 20.1269C212.627 20.1269 212.627 20.0749 212.627 19.971V19.6093V19.2475V19.0916H212.783H213.144H213.506H213.662C213.662 19.0916 213.662 19.1436 213.662 19.2475V19.6093V19.971V20.1269C213.662 20.1269 213.61 20.1269 213.506 20.1269H213.144H212.783H212.627ZM212.627 18.7151C212.627 18.7151 212.627 18.6632 212.627 18.5593V18.1975V17.8357V17.6798H212.783H213.144H213.506H213.662C213.662 17.6798 213.662 17.7318 213.662 17.8357V18.1975V18.5593V18.7151C213.662 18.7151 213.61 18.7151 213.506 18.7151H213.144H212.783H212.627ZM212.627 17.3034C212.627 17.3034 212.627 17.2514 212.627 17.1475V16.7857V16.424V16.2681H212.783H213.144H213.506H213.662C213.662 16.2681 213.662 16.32 213.662 16.424V16.7857V17.1475V17.3034C213.662 17.3034 213.61 17.3034 213.506 17.3034H213.144H212.783H212.627ZM212.627 15.8916C212.627 15.8916 212.627 15.8397 212.627 15.7357V15.374V15.0122V14.8563H212.783H213.144H213.506H213.662C213.662 14.8563 213.662 14.9083 213.662 15.0122V15.374V15.7357V15.8916C213.662 15.8916 213.61 15.8916 213.506 15.8916H213.144H212.783H212.627ZM212.627 14.4798C212.627 14.4798 212.627 14.4279 212.627 14.324V13.9622V13.6004V13.4446H212.783H213.144H213.506H213.662C213.662 13.4446 213.662 13.4965 213.662 13.6004V13.9622V14.324V14.4798C213.662 14.4798 213.61 14.4798 213.506 14.4798H213.144H212.783H212.627ZM218.274 14.4798C218.274 14.4798 218.274 14.4279 218.274 14.324V13.9622V13.6004V13.4446H218.43H218.791H219.153H219.309C219.309 13.4446 219.309 13.4965 219.309 13.6004V13.9622V14.324V14.4798C219.309 14.4798 219.257 14.4798 219.153 14.4798H218.791H218.43H218.274ZM214.038 13.0681C214.038 13.0681 214.038 13.0161 214.038 12.9122V12.5504V12.1887V12.0328H214.194H214.556H214.918H215.074C215.074 12.0328 215.074 12.0847 215.074 12.1887V12.5504V12.9122V13.0681C215.074 13.0681 215.022 13.0681 214.918 13.0681H214.556H214.194H214.038ZM215.45 13.0681C215.45 13.0681 215.45 13.0161 215.45 12.9122V12.5504V12.1887V12.0328H215.606H215.968H216.33H216.485C216.485 12.0328 216.485 12.0847 216.485 12.1887V12.5504V12.9122V13.0681C216.485 13.0681 216.434 13.0681 216.33 13.0681H215.968H215.606H215.45ZM216.862 13.0681C216.862 13.0681 216.862 13.0161 216.862 12.9122V12.5504V12.1887V12.0328H217.018H217.38H217.741H217.897C217.897 12.0328 217.897 12.0847 217.897 12.1887V12.5504V12.9122V13.0681C217.897 13.0681 217.845 13.0681 217.741 13.0681H217.38H217.018H216.862ZM222.746 22.9504C222.746 22.9504 222.746 22.8985 222.746 22.7946V22.4328V22.071V21.9151H222.902H223.264H223.625H223.781C223.781 21.9151 223.781 21.9671 223.781 22.071V22.4328V22.7946V22.9504C223.781 22.9504 223.729 22.9504 223.625 22.9504H223.264H222.902H222.746ZM224.158 22.9504C224.158 22.9504 224.158 22.8985 224.158 22.7946V22.4328V22.071V21.9151H224.314H224.675H225.037H225.193C225.193 21.9151 225.193 21.9671 225.193 22.071V22.4328V22.7946V22.9504C225.193 22.9504 225.141 22.9504 225.037 22.9504H224.675H224.314H224.158ZM225.569 22.9504C225.569 22.9504 225.569 22.8985 225.569 22.7946V22.4328V22.071V21.9151H225.725H226.087H226.449H226.605C226.605 21.9151 226.605 21.9671 226.605 22.071V22.4328V22.7946V22.9504C226.605 22.9504 226.553 22.9504 226.449 22.9504H226.087H225.725H225.569ZM221.334 21.5387C221.334 21.5387 221.334 21.4867 221.334 21.3828V21.021V20.6593V20.5034H221.49H221.852H222.214H222.369C222.369 20.5034 222.369 20.5553 222.369 20.6593V21.021V21.3828V21.5387C222.369 21.5387 222.317 21.5387 222.214 21.5387H221.852H221.49H221.334ZM226.981 21.5387C226.981 21.5387 226.981 21.4867 226.981 21.3828V21.021V20.6593V20.5034H227.137H227.499H227.861H228.017C228.017 20.5034 228.017 20.5553 228.017 20.6593V21.021V21.3828V21.5387C228.017 21.5387 227.965 21.5387 227.861 21.5387H227.499H227.137H226.981ZM221.334 20.1269C221.334 20.1269 221.334 20.0749 221.334 19.971V19.6093V19.2475V19.0916H221.49H221.852H222.214H222.369C222.369 19.0916 222.369 19.1436 222.369 19.2475V19.6093V19.971V20.1269C222.369 20.1269 222.317 20.1269 222.214 20.1269H221.852H221.49H221.334ZM226.981 20.1269C226.981 20.1269 226.981 20.0749 226.981 19.971V19.6093V19.2475V19.0916H227.137H227.499H227.861H228.017C228.017 19.0916 228.017 19.1436 228.017 19.2475V19.6093V19.971V20.1269C228.017 20.1269 227.965 20.1269 227.861 20.1269H227.499H227.137H226.981ZM225.569 18.7151C225.569 18.7151 225.569 18.6632 225.569 18.5593V18.1975V17.8357V17.6798H225.725H226.087H226.449H226.605C226.605 17.6798 226.605 17.7318 226.605 17.8357V18.1975V18.5593V18.7151C226.605 18.7151 226.553 18.7151 226.449 18.7151H226.087H225.725H225.569ZM224.158 18.0093C224.158 18.0093 224.158 17.9573 224.158 17.8534V17.4916V17.1298V16.974H224.314H224.675H225.037H225.193C225.193 16.974 225.193 17.0259 225.193 17.1298V17.4916V17.8534V18.0093C225.193 18.0093 225.141 18.0093 225.037 18.0093H224.675H224.314H224.158ZM222.746 17.3034C222.746 17.3034 222.746 17.2514 222.746 17.1475V16.7857V16.424V16.2681H222.902H223.264H223.625H223.781C223.781 16.2681 223.781 16.32 223.781 16.424V16.7857V17.1475V17.3034C223.781 17.3034 223.729 17.3034 223.625 17.3034H223.264H222.902H222.746ZM221.334 15.8916C221.334 15.8916 221.334 15.8397 221.334 15.7357V15.374V15.0122V14.8563H221.49H221.852H222.214H222.369C222.369 14.8563 222.369 14.9083 222.369 15.0122V15.374V15.7357V15.8916C222.369 15.8916 222.317 15.8916 222.214 15.8916H221.852H221.49H221.334ZM226.981 15.8916C226.981 15.8916 226.981 15.8397 226.981 15.7357V15.374V15.0122V14.8563H227.137H227.499H227.861H228.017C228.017 14.8563 228.017 14.9083 228.017 15.0122V15.374V15.7357V15.8916C228.017 15.8916 227.965 15.8916 227.861 15.8916H227.499H227.137H226.981ZM221.334 14.4798C221.334 14.4798 221.334 14.4279 221.334 14.324V13.9622V13.6004V13.4446H221.49H221.852H222.214H222.369C222.369 13.4446 222.369 13.4965 222.369 13.6004V13.9622V14.324V14.4798C222.369 14.4798 222.317 14.4798 222.214 14.4798H221.852H221.49H221.334ZM226.981 14.4798C226.981 14.4798 226.981 14.4279 226.981 14.324V13.9622V13.6004V13.4446H227.137H227.499H227.861H228.017C228.017 13.4446 228.017 13.4965 228.017 13.6004V13.9622V14.324V14.4798C228.017 14.4798 227.965 14.4798 227.861 14.4798H227.499H227.137H226.981ZM222.746 13.0681C222.746 13.0681 222.746 13.0161 222.746 12.9122V12.5504V12.1887V12.0328H222.902H223.264H223.625H223.781C223.781 12.0328 223.781 12.0847 223.781 12.1887V12.5504V12.9122V13.0681C223.781 13.0681 223.729 13.0681 223.625 13.0681H223.264H222.902H222.746ZM224.158 13.0681C224.158 13.0681 224.158 13.0161 224.158 12.9122V12.5504V12.1887V12.0328H224.314H224.675H225.037H225.193C225.193 12.0328 225.193 12.0847 225.193 12.1887V12.5504V12.9122V13.0681C225.193 13.0681 225.141 13.0681 225.037 13.0681H224.675H224.314H224.158ZM225.569 13.0681C225.569 13.0681 225.569 13.0161 225.569 12.9122V12.5504V12.1887V12.0328H225.725H226.087H226.449H226.605C226.605 12.0328 226.605 12.0847 226.605 12.1887V12.5504V12.9122V13.0681C226.605 13.0681 226.553 13.0681 226.449 13.0681H226.087H225.725H225.569Z" fill="white"/>
</svg>
